<svg xmlns="http://www.w3.org/2000/svg" width="340.4892883300781" height="182.47262573242188" viewBox="-94.50182342529297 -33.01436996459961 340.4892883300781 182.47262573242188"><title>Neo4j Graph Visualization</title><desc>Created using Neo4j (http://www.neo4j.com/)</desc><g class="layer relationships"><g class="relationship" transform="translate(216.98745706528504 1.9464980414259117) rotate(537.6813592786076)"><path class="outline" fill="#A5ABB6" stroke="none" d="M 21.40063509461097,12.933012701892217 L 21.90063509461097,12.06698729810778 A 112.98568684832256 112.98568684832256 0 0 0 66.39956782737107,26.565793182575817 L 66.29341357875813,27.56014285723832 A 113.98568684832256 113.98568684832256 0 0 1 21.40063509461097,12.933012701892217 Z M 85.68671524404135,27.97063529967143 L 85.62273144987451,26.972684361957548 A 112.98568684832256 112.98568684832256 0 0 0 130.69531759394124,14.369813073402783 L 129.30659729137633,11.710592149665151 L 137.13161979975652,11.572669188040924 L 132.5469446640278,17.915440971719622 L 131.15822436146289,15.256220047981992 A 113.98568684832256 113.98568684832256 0 0 1 85.68671524404135,27.97063529967143"/><text text-anchor="middle" pointer-events="none" font-size="8px" fill="#000000" x="75.99189753226989" y="30.67878513073505" transform="rotate(180 75.99189753226989 27.67878513073505)" font-family="sans-serif">trek</text></g><g class="relationship" transform="translate(57.82607737439608 8.39094549285619) rotate(452.4173523542376)"><path class="outline" fill="#A5ABB6" stroke="none" d="M 25 0.5 L 42.91559436458984 0.5 L 42.91559436458984 -0.5 L 25 -0.5 Z M 62.25153186458984 0.5 L 80.16712622917969 0.5 L 80.16712622917969 3.5 L 87.16712622917969 0 L 80.16712622917969 -3.5 L 80.16712622917969 -0.5 L 62.25153186458984 -0.5 Z"/><text text-anchor="middle" pointer-events="none" font-size="8px" fill="#000000" x="52.58356311458984" y="3" transform="rotate(180 52.58356311458984 0)" font-family="sans-serif">trek</text></g><g class="relationship" transform="translate(53.09506519526611 120.45825442045404) rotate(191.5077214909025)"><path class="outline" fill="#A5ABB6" stroke="none" d="M 25 0.5 L 47.34695807487486 0.5 L 47.34695807487486 -0.5 L 25 -0.5 Z M 66.68289557487486 0.5 L 89.02985364974973 0.5 L 89.02985364974973 3.5 L 96.02985364974973 0 L 89.02985364974973 -3.5 L 89.02985364974973 -0.5 L 66.68289557487486 -0.5 Z"/><text text-anchor="middle" pointer-events="none" font-size="8px" fill="#000000" x="57.01492682487486" y="3" transform="rotate(180 57.01492682487486 0)" font-family="sans-serif">trek</text></g><g class="relationship" transform="translate(216.98745706528504 1.9464980414259117) rotate(537.6813592786076)"><path class="outline" fill="#A5ABB6" stroke="none" d="M 25 0.5 L 65.14003770711838 0.5 L 65.14003770711838 -0.5 L 25 -0.5 Z M 87.15175645711838 0.5 L 127.29179416423676 0.5 L 127.29179416423676 3.5 L 134.29179416423676 0 L 127.29179416423676 -3.5 L 127.29179416423676 -0.5 L 87.15175645711838 -0.5 Z"/><text text-anchor="middle" pointer-events="none" font-size="8px" fill="#000000" x="76.14589708211838" y="3" transform="rotate(180 76.14589708211838 0)" font-family="sans-serif">road</text></g><g class="relationship" transform="translate(216.98745706528504 1.9464980414259117) rotate(537.6813592786076)"><path class="outline" fill="#A5ABB6" stroke="none" d="M 21.40063509461097,-12.933012701892217 L 21.90063509461097,-12.06698729810778 A 112.98568684832256 112.98568684832256 0 0 1 45.74722058126537,-22.384991667222323 L 45.458279044968535,-23.342338411407752 A 113.98568684832256 113.98568684832256 0 0 0 21.40063509461097,-12.933012701892217 Z M 106.681662766703,-24.638236178157996 L 106.43348964049662,-23.669520482285918 A 112.98568684832256 112.98568684832256 0 0 1 130.69531759394124,-14.369813073402783 L 129.30659729137633,-11.710592149665151 L 137.13161979975652,-11.572669188040924 L 132.5469446640278,-17.915440971719622 L 131.15822436146289,-15.256220047981992 A 113.98568684832256 113.98568684832256 0 0 0 106.681662766703,-24.638236178157996"/><text text-anchor="middle" pointer-events="none" font-size="8px" fill="#000000" x="75.9918975322699" y="-24.67878513073505" transform="rotate(180 75.9918975322699 -27.67878513073505)" font-family="sans-serif">PublicTransport</text></g></g><g class="layer nodes"><g class="node" transform="translate(216.98745706528504,1.9464980414259117)"><circle class="outline" cx="0" cy="0" r="25" fill="#F16667" stroke="#eb2728" stroke-width="2px"/><text text-anchor="middle" pointer-events="none" font-family="sans-serif" dy="1.5625" font-size="25" fill="#FFFFFF"/><text text-anchor="middle" pointer-events="none" y="5" font-size="10px" fill="#FFFFFF" font-family="sans-serif"> Darjeeling</text></g><g class="node" transform="translate(57.82607737439608,8.39094549285619)"><circle class="outline" cx="0" cy="0" r="25" fill="#F16667" stroke="#eb2728" stroke-width="2px"/><text text-anchor="middle" pointer-events="none" font-family="sans-serif" dy="1.5625" font-size="25" fill="#FFFFFF"/><text text-anchor="middle" pointer-events="none" y="5" font-size="10px" fill="#FFFFFF" font-family="sans-serif"> Rimbik</text></g><g class="node" transform="translate(53.09506519526611,120.45825442045404)"><circle class="outline" cx="0" cy="0" r="25" fill="#D9C8AE" stroke="#c0a378" stroke-width="2px"/><text text-anchor="middle" pointer-events="none" font-family="sans-serif" dy="1.5625" font-size="25" fill="#604A0E"/><text text-anchor="middle" pointer-events="none" y="5" font-size="10px" fill="#604A0E" font-family="sans-serif"> BhikeBh…</text></g><g class="node" transform="translate(-65.50182549689873,96.31279951418767)"><circle class="outline" cx="0" cy="0" r="25" fill="#8DCC93" stroke="#5db665" stroke-width="2px"/><text text-anchor="middle" pointer-events="none" font-family="sans-serif" dy="1.5625" font-size="25" fill="#604A0E"/><text text-anchor="middle" pointer-events="none" y="5" font-size="10px" fill="#604A0E" font-family="sans-serif"> Sandak…</text></g></g></svg>