<svg xmlns="http://www.w3.org/2000/svg" width="394.6407470703125" height="407.80096435546875" viewBox="-90.2408447265625 -93.56725311279297 394.6407470703125 407.80096435546875"><title>Neo4j Graph Visualization</title><desc>Created using Neo4j (http://www.neo4j.com/)</desc><g class="layer relationships"><g class="relationship" transform="translate(159.06414755623132 285.233741538067) rotate(319.56982435337113)"><path class="outline" fill="#A5ABB6" stroke="none" d="M 24.018736134675446,-6.953439040707552 L 24.277555179777966,-5.987513214418485 A 110.81789220156135 110.81789220156135 0 0 1 41.628760908118934,-9.182772157341901 L 41.526515908810225,-10.177531404655724 A 111.81789220156135 111.81789220156135 0 0 0 24.018736134675446,-6.953439040707552 Z M 60.92254276884917,-10.47962761222388 L 60.85132691606923,-9.482166684511498 A 110.81789220156135 110.81789220156135 0 0 1 78.29362557564404,-6.828822114023358 L 77.60778986303444,-3.9082691911491145 L 85.22255501445221,-5.715297605079998 L 79.20807319245685,-10.72289267785568 L 78.52223747984725,-7.802339754981438 A 111.81789220156135 111.81789220156135 0 0 0 60.92254276884917,-10.47962761222388"/><text text-anchor="middle" pointer-events="none" font-size="8px" fill="#000000" x="51.22575257736918" y="-7.250041721557295" font-family="sans-serif">trek</text></g><g class="relationship" transform="translate(242.461253149823 214.1814715476402) rotate(286.7244071551333)"><path class="outline" fill="#A5ABB6" stroke="none" d="M 21.40063509461097,-12.933012701892217 L 21.90063509461097,-12.06698729810778 A 67.17533224637751 67.17533224637751 0 0 1 43.99833391042375,-20.076833550347075 L 43.827289467126704,-21.06209686460231 A 68.17533224637751 68.17533224637751 0 0 0 21.40063509461097,-12.933012701892217 Z M 63.23171715118003,-21.625595725221046 L 63.118136246207,-20.632066974743495 A 67.17533224637751 67.17533224637751 0 0 1 85.64341145668244,-13.91805873590238 L 84.29670683027508,-11.237315061245475 L 92.12293080194978,-11.222538553394688 L 87.43901762522559,-17.49238363544492 L 86.09231299881823,-14.811639960788016 A 68.17533224637751 68.17533224637751 0 0 0 63.23171715118003,-21.625595725221046"/><text text-anchor="middle" pointer-events="none" font-size="8px" fill="#000000" x="53.523857653693895" y="-18.53825789136495" font-family="sans-serif">trek</text></g><g class="relationship" transform="translate(275.39994535243767 104.56077262976768) rotate(189.46480827613817)"><path class="outline" fill="#A5ABB6" stroke="none" d="M 21.40063509461097,12.933012701892217 L 21.90063509461097,12.06698729810778 A 69.27338433939494 69.27338433939494 0 0 0 45.01474048306834,20.382834647086753 L 44.84840550620642,21.36890395269988 A 70.27338433939494 70.27338433939494 0 0 1 21.40063509461097,12.933012701892217 Z M 64.25273775494328,21.923034172984686 L 64.14294639420032,20.9290795175269 A 69.27338433939494 69.27338433939494 0 0 0 87.69394809526243,13.945849325358973 L 86.34465841663318,11.266405845241394 L 94.17086449530831,11.244080655243678 L 89.49300100010142,17.51844063218241 L 88.14371132147217,14.838997152064833 A 70.27338433939494 70.27338433939494 0 0 1 64.25273775494328,21.923034172984686"/><text text-anchor="middle" pointer-events="none" font-size="8px" fill="#000000" x="54.545618153573415" y="24.819428134381113" transform="rotate(180 54.545618153573415 21.819428134381113)" font-family="sans-serif">trek</text></g><g class="relationship" transform="translate(160.4863182112307 85.40337678864165) rotate(526.150392071609)"><path class="outline" fill="#A5ABB6" stroke="none" d="M 25 0.5 L 57.0836449907917 0.5 L 57.0836449907917 -0.5 L 25 -0.5 Z M 76.4195824907917 0.5 L 108.5032274815834 0.5 L 108.5032274815834 3.5 L 115.5032274815834 0 L 108.5032274815834 -3.5 L 108.5032274815834 -0.5 L 76.4195824907917 -0.5 Z"/><text text-anchor="middle" pointer-events="none" font-size="8px" fill="#000000" x="66.7516137407917" y="3" transform="rotate(180 66.7516137407917 0)" font-family="sans-serif">trek</text></g><g class="relationship" transform="translate(159.06414755623132 285.233741538067) rotate(319.56982435337113)"><path class="outline" fill="#A5ABB6" stroke="none" d="M 24.018736134675446,6.953439040707552 L 24.277555179777966,5.987513214418485 A 110.81789220156135 110.81789220156135 0 0 0 40.3047098933397,9.038635567735085 L 40.19051690450985,10.032094153334953 A 111.81789220156135 111.81789220156135 0 0 1 24.018736134675446,6.953439040707552 Z M 62.26242306010826,10.375867607121208 L 62.179224507020905,9.379334616817232 A 110.81789220156135 110.81789220156135 0 0 0 78.29362557564404,6.828822114023358 L 77.60778986303444,3.9082691911491145 L 85.22255501445221,5.715297605079998 L 79.20807319245685,10.72289267785568 L 78.52223747984725,7.802339754981438 A 111.81789220156135 111.81789220156135 0 0 1 62.26242306010826,10.375867607121208"/><text text-anchor="middle" pointer-events="none" font-size="8px" fill="#000000" x="51.2257525773692" y="13.250041721557295" font-family="sans-serif">road</text></g><g class="relationship" transform="translate(242.461253149823 214.1814715476402) rotate(286.7244071551333)"><path class="outline" fill="#A5ABB6" stroke="none" d="M 25 0.5 L 42.72537133704534 0.5 L 42.72537133704534 -0.5 L 25 -0.5 Z M 64.73709008704535 0.5 L 82.46246142409068 0.5 L 82.46246142409068 3.5 L 89.46246142409068 0 L 82.46246142409068 -3.5 L 82.46246142409068 -0.5 L 64.73709008704535 -0.5 Z"/><text text-anchor="middle" pointer-events="none" font-size="8px" fill="#000000" x="53.73123071204534" y="3" font-family="sans-serif">road</text></g><g class="relationship" transform="translate(242.461253149823 214.1814715476402) rotate(286.7244071551333)"><path class="outline" fill="#A5ABB6" stroke="none" d="M 21.40063509461097,12.933012701892217 L 21.90063509461097,12.06698729810778 A 67.17533224637751 67.17533224637751 0 0 0 31.051187747138265,16.464222671182142 L 30.687406688623604,17.39570715385802 A 68.17533224637751 68.17533224637751 0 0 1 21.40063509461097,12.933012701892217 Z M 76.5622190887399,18.727898184661157 L 76.25310555490655,17.776873041354698 A 67.17533224637751 67.17533224637751 0 0 0 85.64341145668244,13.91805873590238 L 84.29670683027508,11.237315061245475 L 92.12293080194978,11.222538553394688 L 87.43901762522559,17.49238363544492 L 86.09231299881823,14.811639960788016 A 68.17533224637751 68.17533224637751 0 0 1 76.5622190887399,18.727898184661157"/><text text-anchor="middle" pointer-events="none" font-size="8px" fill="#000000" x="53.523857653693895" y="24.53825789136495" font-family="sans-serif">twowheeler</text></g><g class="relationship" transform="translate(275.39994535243767 104.56077262976768) rotate(189.46480827613817)"><path class="outline" fill="#A5ABB6" stroke="none" d="M 25 0.5 L 43.74392070647742 0.5 L 43.74392070647742 -0.5 L 25 -0.5 Z M 65.75563945647741 0.5 L 84.49956016295484 0.5 L 84.49956016295484 3.5 L 91.49956016295484 0 L 84.49956016295484 -3.5 L 84.49956016295484 -0.5 L 65.75563945647741 -0.5 Z"/><text text-anchor="middle" pointer-events="none" font-size="8px" fill="#000000" x="54.74978008147742" y="3" transform="rotate(180 54.74978008147742 0)" font-family="sans-serif">road</text></g><g class="relationship" transform="translate(275.39994535243767 104.56077262976768) rotate(189.46480827613817)"><path class="outline" fill="#A5ABB6" stroke="none" d="M 21.40063509461097,-12.933012701892217 L 21.90063509461097,-12.06698729810778 A 69.27338433939494 69.27338433939494 0 0 1 32.03564854658005,-16.870074636082407 L 31.68195312731648,-17.805435288660846 A 70.27338433939494 70.27338433939494 0 0 0 21.40063509461097,-12.933012701892217 Z M 77.60109140286617,-19.116749786977323 L 77.30135111944924,-18.16272894732174 A 69.27338433939494 69.27338433939494 0 0 1 87.69394809526243,-13.945849325358973 L 86.34465841663318,-11.266405845241394 L 94.17086449530831,-11.244080655243678 L 89.49300100010142,-17.51844063218241 L 88.14371132147217,-14.838997152064833 A 70.27338433939494 70.27338433939494 0 0 0 77.60109140286617,-19.116749786977323"/><text text-anchor="middle" pointer-events="none" font-size="8px" fill="#000000" x="54.54561815357343" y="-18.819428134381113" transform="rotate(180 54.54561815357343 -21.819428134381113)" font-family="sans-serif">twowheeler</text></g><g class="relationship" transform="translate(159.06414755623132 285.233741538067) rotate(256.65040740319967)"><path class="outline" fill="#A5ABB6" stroke="none" d="M 21.40063509461097,12.933012701892217 L 21.90063509461097,12.06698729810778 A 64.01530445392157 64.01530445392157 0 0 0 22.75946211295638,12.554039610127447 L 22.272878076930493,13.42767338688104 A 65.01530445392157 65.01530445392157 0 0 1 21.40063509461097,12.933012701892217 Z M 82.1056304722335,15.21052501530103 L 81.6719273097628,14.30946920855935 A 64.01530445392157 64.01530445392157 0 0 0 82.55823050983062,13.874416982231 L 81.21558549239353,11.191637759642727 L 89.04182286544277,11.188708478642486 L 84.34842386641341,17.45145594568203 L 83.00577884897632,14.768676723093758 A 65.01530445392157 65.01530445392157 0 0 1 82.1056304722335,15.21052501530103"/><text text-anchor="middle" pointer-events="none" font-size="8px" fill="#000000" x="51.98676135668398" y="24.11479011852977" transform="rotate(180 51.98676135668398 21.11479011852977)" font-family="sans-serif">PublicTransport</text></g><g class="relationship" transform="translate(133.34316861742957 176.84547586188563) rotate(286.53269369364244)"><path class="outline" fill="#A5ABB6" stroke="none" d="M 25 0.5 L 34.524819103071756 0.5 L 34.524819103071756 -0.5 L 25 -0.5 Z M 53.860756603071756 0.5 L 63.38557570614351 0.5 L 63.38557570614351 3.5 L 70.38557570614351 0 L 63.38557570614351 -3.5 L 63.38557570614351 -0.5 L 53.860756603071756 -0.5 Z"/><text text-anchor="middle" pointer-events="none" font-size="8px" fill="#000000" x="44.192787853071756" y="3" font-family="sans-serif">trek</text></g><g class="relationship" transform="translate(159.06414755623132 285.233741538067) rotate(256.65040740319967)"><path class="outline" fill="#A5ABB6" stroke="none" d="M 25 0.5 L 41.19329881850586 0.5 L 41.19329881850586 -0.5 L 25 -0.5 Z M 63.20501756850586 0.5 L 79.39831638701172 0.5 L 79.39831638701172 3.5 L 86.39831638701172 0 L 79.39831638701172 -3.5 L 79.39831638701172 -0.5 L 63.20501756850586 -0.5 Z"/><text text-anchor="middle" pointer-events="none" font-size="8px" fill="#000000" x="52.19915819350586" y="3" transform="rotate(180 52.19915819350586 0)" font-family="sans-serif">road</text></g><g class="relationship" transform="translate(159.06414755623132 285.233741538067) rotate(256.65040740319967)"><path class="outline" fill="#A5ABB6" stroke="none" d="M 21.40063509461097,-12.933012701892217 L 21.90063509461097,-12.06698729810778 A 64.01530445392157 64.01530445392157 0 0 1 42.47008488430845,-19.61323842784057 L 42.29140569915364,-20.59714581616145 A 65.01530445392157 65.01530445392157 0 0 0 21.40063509461097,-12.933012701892217 Z M 61.69573712503775,-21.175341578450244 L 61.57595840725931,-20.182540964647373 A 64.01530445392157 64.01530445392157 0 0 1 82.55823050983062,-13.874416982231 L 81.21558549239353,-11.191637759642727 L 89.04182286544277,-11.188708478642486 L 84.34842386641341,-17.45145594568203 L 83.00577884897632,-14.768676723093758 A 65.01530445392157 65.01530445392157 0 0 0 61.69573712503775,-21.175341578450244"/><text text-anchor="middle" pointer-events="none" font-size="8px" fill="#000000" x="51.986761356683964" y="-18.11479011852977" transform="rotate(180 51.986761356683964 -21.11479011852977)" font-family="sans-serif">trek</text></g><g class="relationship" transform="translate(133.34316861742957 176.84547586188563) rotate(256.38067083617284)"><path class="outline" fill="#A5ABB6" stroke="none" d="M 24.018736134675446,-6.953439040707552 L 24.277555179777966,-5.987513214418485 A 175.84058528988598 175.84058528988598 0 0 1 58.02072050189251,-11.584929946143063 L 57.95379780009712,-12.58268810921885 A 176.84058528988598 176.84058528988598 0 0 0 24.018736134675446,-6.953439040707552 Z M 77.33341818337601,-12.818108032060934 L 77.2907528041802,-11.819018613931547 A 175.84058528988598 175.84058528988598 0 0 1 111.15993331891248,-7.042943731287532 L 110.45409821783042,-4.12715964976152 L 118.08106869265352,-5.8819591756837495 L 112.10104678702189,-10.930655839988882 L 111.39521168593983,-8.014871758462869 A 176.84058528988598 176.84058528988598 0 0 0 77.33341818337601,-12.818108032060934"/><text text-anchor="middle" pointer-events="none" font-size="8px" fill="#000000" x="67.6464538831058" y="-9.466126078184743" transform="rotate(180 67.6464538831058 -12.466126078184743)" font-family="sans-serif">trek</text></g><g class="relationship" transform="translate(99.81712232921932 38.469681131752886) rotate(189.13040541550873)"><path class="outline" fill="#A5ABB6" stroke="none" d="M 24.018736134675446,-6.953439040707552 L 24.277555179777966,-5.987513214418485 A 96.16822859205539 96.16822859205539 0 0 1 37.976863125093395,-8.611020249422793 L 37.86049557510396,-9.604226468346866 A 97.16822859205539 97.16822859205539 0 0 0 24.018736134675446,-6.953439040707552 Z M 57.26138041250009,-9.9266976939941 L 57.17808511879555,-8.930172785099856 A 96.16822859205539 96.16822859205539 0 0 1 70.95701464876049,-6.763394450438083 L 70.27729046039006,-3.8414130973586103 L 77.88825850400767,-5.6643682364203105 L 71.86331356658773,-10.659369587877382 L 71.1835893782173,-7.737388234797908 A 97.16822859205539 97.16822859205539 0 0 0 57.26138041250009,-9.9266976939941"/><text text-anchor="middle" pointer-events="none" font-size="8px" fill="#000000" x="47.56117811749039" y="-6.751015483600909" transform="rotate(180 47.56117811749039 -9.75101548360091)" font-family="sans-serif">trek</text></g><g class="relationship" transform="translate(-1.125597154126213 22.246330323374526) rotate(435.410197840033)"><path class="outline" fill="#A5ABB6" stroke="none" d="M 24.018736134675446,6.953439040707552 L 24.277555179777966,5.987513214418485 A 91.70588980881404 91.70588980881404 0 0 0 36.86897897311681,8.43271757848791 L 36.74746216475818,9.425306952441872 A 92.70588980881404 92.70588980881404 0 0 1 24.018736134675446,6.953439040707552 Z M 56.149856664160026,9.754517773173333 L 56.06208370096891,8.758377267555446 A 91.70588980881404 91.70588980881404 0 0 0 68.72921381020936,6.741748317773938 L 68.0515116088668,3.819297338493798 L 75.66121646208678,5.647518344521323 L 69.63281674533278,10.638349623480792 L 68.95511454399022,7.715898644200651 A 92.70588980881404 92.70588980881404 0 0 1 56.149856664160026,9.754517773173333"/><text text-anchor="middle" pointer-events="none" font-size="8px" fill="#000000" x="46.44850444614345" y="12.599045587494714" font-family="sans-serif">trek</text></g><g class="relationship" transform="translate(133.34316861742957 176.84547586188563) rotate(256.38067083617284)"><path class="outline" fill="#A5ABB6" stroke="none" d="M 24.018736134675446,6.953439040707552 L 24.277555179777966,5.987513214418485 A 175.84058528988598 175.84058528988598 0 0 0 44.573153924425725,10.161826034275236 L 44.4297553251275,11.1514910491764 A 176.84058528988598 176.84058528988598 0 0 1 24.018736134675446,6.953439040707552 Z M 90.88823646739797,11.71585979477419 L 90.7689211593309,10.723003381559835 A 175.84058528988598 175.84058528988598 0 0 0 111.15993331891248,7.042943731287532 L 110.45409821783042,4.12715964976152 L 118.08106869265352,5.8819591756837495 L 112.10104678702189,10.930655839988882 L 111.39521168593983,8.014871758462869 A 176.84058528988598 176.84058528988598 0 0 1 90.88823646739797,11.71585979477419"/><text text-anchor="middle" pointer-events="none" font-size="8px" fill="#000000" x="67.64645388310582" y="15.466126078184743" transform="rotate(180 67.64645388310582 12.466126078184743)" font-family="sans-serif">twowheeler</text></g><g class="relationship" transform="translate(99.81712232921932 38.469681131752886) rotate(189.13040541550873)"><path class="outline" fill="#A5ABB6" stroke="none" d="M 24.018736134675446,6.953439040707552 L 24.277555179777966,5.987513214418485 A 96.16822859205539 96.16822859205539 0 0 0 24.72817704752309,6.107087022257716 L 24.47404376896054,7.074256230166583 A 97.16822859205539 97.16822859205539 0 0 1 24.018736134675446,6.953439040707552 Z M 70.72451804381139,7.8430071016437495 L 70.50266781475,6.867926348133864 A 96.16822859205539 96.16822859205539 0 0 0 70.95701464876049,6.763394450438083 L 70.27729046039006,3.8414130973586103 L 77.88825850400767,5.6643682364203105 L 71.86331356658773,10.659369587877382 L 71.1835893782173,7.737388234797908 A 97.16822859205539 97.16822859205539 0 0 1 70.72451804381139,7.8430071016437495"/><text text-anchor="middle" pointer-events="none" font-size="8px" fill="#000000" x="47.561178117490414" y="12.75101548360091" transform="rotate(180 47.561178117490414 9.75101548360091)" font-family="sans-serif">twowheeler</text></g><g class="relationship" transform="translate(-1.125597154126213 22.246330323374526) rotate(435.410197840033)"><path class="outline" fill="#A5ABB6" stroke="none" d="M 24.018736134675446,-6.953439040707552 L 24.277555179777966,-5.987513214418485 A 91.70588980881404 91.70588980881404 0 0 1 26.21652534024429,-6.484443576146006 L 25.978849649887124,-7.455788142308421 A 92.70588980881404 92.70588980881404 0 0 0 24.018736134675446,-6.953439040707552 Z M 66.97908698043702,-8.151461131649583 L 66.77450126307669,-7.172612479276722 A 91.70588980881404 91.70588980881404 0 0 1 68.72921381020936,-6.741748317773938 L 68.0515116088668,-3.819297338493798 L 75.66121646208678,-5.647518344521323 L 69.63281674533278,-10.638349623480792 L 68.95511454399022,-7.715898644200651 A 92.70588980881404 92.70588980881404 0 0 0 66.97908698043702,-8.151461131649583"/><text text-anchor="middle" pointer-events="none" font-size="8px" fill="#000000" x="46.44850444614343" y="-6.5990455874947145" font-family="sans-serif">twowhe…</text></g><g class="relationship" transform="translate(133.34316861742957 176.84547586188563) rotate(378.88896631459363)"><path class="outline" fill="#A5ABB6" stroke="none" d="M 25 0.5 L 44.49643306313173 0.5 L 44.49643306313173 -0.5 L 25 -0.5 Z M 63.83237056313173 0.5 L 83.32880362626346 0.5 L 83.32880362626346 3.5 L 90.32880362626346 0 L 83.32880362626346 -3.5 L 83.32880362626346 -0.5 L 63.83237056313173 -0.5 Z"/><text text-anchor="middle" pointer-events="none" font-size="8px" fill="#000000" x="54.16440181313173" y="3" font-family="sans-serif">trek</text></g><g class="relationship" transform="translate(99.81712232921932 38.469681131752886) rotate(236.29046125090343)"><path class="outline" fill="#A5ABB6" stroke="none" d="M 24.018736134675446,-6.953439040707552 L 24.277555179777966,-5.987513214418485 A 139.26069745964432 139.26069745964432 0 0 1 48.769391376231994,-10.252789543607832 L 48.68644274283376,-11.249343367652159 A 140.26069745964432 140.26069745964432 0 0 0 24.018736134675446,-6.953439040707552 Z M 68.07421814190394,-11.518247516113206 L 68.01894006068991,-10.519776518168186 A 139.26069745964432 139.26069745964432 0 0 1 92.61964916224872,-6.935402913371899 L 91.92385830736633,-4.017205681130385 L 99.54474117995933,-5.798257124019909 L 93.54737030209192,-10.826332556360585 L 92.85157944720953,-7.908135324119071 A 140.26069745964432 140.26069745964432 0 0 0 68.07421814190394,-11.518247516113206"/><text text-anchor="middle" pointer-events="none" font-size="8px" fill="#000000" x="58.3826124373864" y="-8.219265414677409" transform="rotate(180 58.3826124373864 -11.219265414677409)" font-family="sans-serif">trek</text></g><g class="relationship" transform="translate(31.075243659358893 -64.56725220336864) rotate(470.350793725911)"><path class="outline" fill="#A5ABB6" stroke="none" d="M 21.40063509461097,12.933012701892217 L 21.90063509461097,12.06698729810778 A 44.48271046121677 44.48271046121677 0 0 0 33.12004805497133,16.639401923193205 L 32.87226768916251,17.608218154642522 A 45.48271046121677 45.48271046121677 0 0 1 21.40063509461097,12.933012701892217 Z M 52.260761334717685,18.296064682136915 L 52.08225897795025,17.31212519790607 A 44.48271046121677 44.48271046121677 0 0 0 63.597489189752714,13.546268609028978 L 62.28537272948242,10.848426805904163 L 70.11113947375566,10.934303835585766 L 65.34697780344644,17.1433910131954 L 64.03486134317615,14.445549210070585 A 45.48271046121677 45.48271046121677 0 0 1 52.260761334717685,18.296064682136915"/><text text-anchor="middle" pointer-events="none" font-size="8px" fill="#000000" x="42.54713986946012" y="21.49825907340857" transform="rotate(180 42.54713986946012 18.49825907340857)" font-family="sans-serif">trek</text></g><g class="relationship" transform="translate(99.81712232921932 38.469681131752886) rotate(236.29046125090343)"><path class="outline" fill="#A5ABB6" stroke="none" d="M 24.018736134675446,6.953439040707552 L 24.277555179777966,5.987513214418485 A 139.26069745964432 139.26069745964432 0 0 0 35.37554278963512,8.480301445156698 L 35.19641591764607,9.46412742760046 A 140.26069745964432 140.26069745964432 0 0 1 24.018736134675446,6.953439040707552 Z M 81.60856736649555,10.107853683279927 L 81.4567950465552,9.11943820237127 A 139.26069745964432 139.26069745964432 0 0 0 92.61964916224872,6.935402913371899 L 91.92385830736633,4.017205681130385 L 99.54474117995933,5.798257124019909 L 93.54737030209192,10.826332556360585 L 92.85157944720953,7.908135324119071 A 140.26069745964432 140.26069745964432 0 0 1 81.60856736649555,10.107853683279927"/><text text-anchor="middle" pointer-events="none" font-size="8px" fill="#000000" x="58.382612437386385" y="14.219265414677409" transform="rotate(180 58.382612437386385 11.219265414677409)" font-family="sans-serif">twowheeler</text></g><g class="relationship" transform="translate(31.075243659358893 -64.56725220336864) rotate(470.350793725911)"><path class="outline" fill="#A5ABB6" stroke="none" d="M 25 0.5 L 31.790717874897894 0.5 L 31.790717874897894 -0.5 L 25 -0.5 Z M 53.802436624897894 0.5 L 60.59315449979579 0.5 L 60.59315449979579 3.5 L 67.59315449979579 0 L 60.59315449979579 -3.5 L 60.59315449979579 -0.5 L 53.802436624897894 -0.5 Z"/><text text-anchor="middle" pointer-events="none" font-size="8px" fill="#000000" x="42.796577249897894" y="3" transform="rotate(180 42.796577249897894 0)" font-family="sans-serif">road</text></g><g class="relationship" transform="translate(31.075243659358893 -64.56725220336864) rotate(470.350793725911)"><path class="outline" fill="#A5ABB6" stroke="none" d="M 21.40063509461097,-12.933012701892217 L 21.90063509461097,-12.06698729810778 A 44.48271046121677 44.48271046121677 0 0 1 23.10599548836655,-12.738197604868041 L 22.633092766865495,-13.619312248939337 A 45.48271046121677 45.48271046121677 0 0 0 21.40063509461097,-12.933012701892217 Z M 62.756867613186806,-15.042785351210824 L 62.347593911175565,-14.130373691463966 A 44.48271046121677 44.48271046121677 0 0 1 63.597489189752714,-13.546268609028978 L 62.28537272948242,-10.848426805904163 L 70.11113947375566,-10.934303835585766 L 65.34697780344644,-17.1433910131954 L 64.03486134317615,-14.445549210070585 A 45.48271046121677 45.48271046121677 0 0 0 62.756867613186806,-15.042785351210824"/><text text-anchor="middle" pointer-events="none" font-size="8px" fill="#000000" x="42.54713986946012" y="-15.498259073408569" transform="rotate(180 42.54713986946012 -18.49825907340857)" font-family="sans-serif">twowhe…</text></g><g class="relationship" transform="translate(31.075243659358893 -64.56725220336864) rotate(495.1759289639044)"><path class="outline" fill="#A5ABB6" stroke="none" d="M 25 0.5 L 51.909844339453855 0.5 L 51.909844339453855 -0.5 L 25 -0.5 Z M 71.24578183945385 0.5 L 98.15562617890771 0.5 L 98.15562617890771 3.5 L 105.15562617890771 0 L 98.15562617890771 -3.5 L 98.15562617890771 -0.5 L 71.24578183945385 -0.5 Z"/><text text-anchor="middle" pointer-events="none" font-size="8px" fill="#000000" x="61.577813089453855" y="3" transform="rotate(180 61.577813089453855 0)" font-family="sans-serif">trek</text></g><g class="relationship" transform="translate(-61.24084174022191 27.183646443570353) rotate(407.11538617362845)"><path class="outline" fill="#A5ABB6" stroke="none" d="M 25 0.5 L 49.51072604859373 0.5 L 49.51072604859373 -0.5 L 25 -0.5 Z M 68.84666354859374 0.5 L 93.35738959718746 0.5 L 93.35738959718746 3.5 L 100.35738959718746 0 L 93.35738959718746 -3.5 L 93.35738959718746 -0.5 L 68.84666354859374 -0.5 Z"/><text text-anchor="middle" pointer-events="none" font-size="8px" fill="#000000" x="59.17869479859373" y="3" font-family="sans-serif">trek</text></g></g><g class="layer nodes"><g class="node" transform="translate(159.06414755623132,285.233741538067)"><circle class="outline" cx="0" cy="0" r="25" fill="#F16667" stroke="#eb2728" stroke-width="2px"/><text text-anchor="middle" pointer-events="none" font-family="sans-serif" dy="1.5625" font-size="25" fill="#FFFFFF"/><text text-anchor="middle" pointer-events="none" y="5" font-size="10px" fill="#FFFFFF" font-family="sans-serif"> Darjeeling</text></g><g class="node" transform="translate(242.461253149823,214.1814715476402)"><circle class="outline" cx="0" cy="0" r="25" fill="#D9C8AE" stroke="#c0a378" stroke-width="2px"/><text text-anchor="middle" pointer-events="none" font-family="sans-serif" dy="1.5625" font-size="25" fill="#604A0E"/><text text-anchor="middle" pointer-events="none" y="5" font-size="10px" fill="#604A0E" font-family="sans-serif"> Tumbling</text></g><g class="node" transform="translate(275.39994535243767,104.56077262976768)"><circle class="outline" cx="0" cy="0" r="25" fill="#D9C8AE" stroke="#c0a378" stroke-width="2px"/><text text-anchor="middle" pointer-events="none" font-family="sans-serif" dy="1.5625" font-size="25" fill="#604A0E"/><text text-anchor="middle" pointer-events="none" y="5" font-size="10px" fill="#604A0E" font-family="sans-serif"> Gairibus</text></g><g class="node" transform="translate(160.4863182112307,85.40337678864165)"><circle class="outline" cx="0" cy="0" r="25" fill="#D9C8AE" stroke="#c0a378" stroke-width="2px"/><text text-anchor="middle" pointer-events="none" font-family="sans-serif" dy="1.5625" font-size="25" fill="#604A0E"/><text text-anchor="middle" pointer-events="none" y="5" font-size="10px" fill="#604A0E" font-family="sans-serif"> BhikeBh…</text></g><g class="node" transform="translate(24.067886477962173,119.03622406889912)"><circle class="outline" cx="0" cy="0" r="25" fill="#8DCC93" stroke="#5db665" stroke-width="2px"/><text text-anchor="middle" pointer-events="none" font-family="sans-serif" dy="1.5625" font-size="25" fill="#604A0E"/><text text-anchor="middle" pointer-events="none" y="5" font-size="10px" fill="#604A0E" font-family="sans-serif"> Sandak…</text></g><g class="node" transform="translate(133.34316861742957,176.84547586188563)"><circle class="outline" cx="0" cy="0" r="25" fill="#F16667" stroke="#eb2728" stroke-width="2px"/><text text-anchor="middle" pointer-events="none" font-family="sans-serif" dy="1.5625" font-size="25" fill="#FFFFFF"/><text text-anchor="middle" pointer-events="none" y="5" font-size="10px" fill="#FFFFFF" font-family="sans-serif"> Rimbik</text></g><g class="node" transform="translate(99.81712232921932,38.469681131752886)"><circle class="outline" cx="0" cy="0" r="25" fill="#D9C8AE" stroke="#c0a378" stroke-width="2px"/><text text-anchor="middle" pointer-events="none" font-family="sans-serif" dy="1.5625" font-size="25" fill="#604A0E"/><text text-anchor="middle" pointer-events="none" y="5" font-size="10px" fill="#604A0E" font-family="sans-serif"> Sirikhola</text></g><g class="node" transform="translate(-1.125597154126213,22.246330323374526)"><circle class="outline" cx="0" cy="0" r="25" fill="#D9C8AE" stroke="#c0a378" stroke-width="2px"/><text text-anchor="middle" pointer-events="none" font-family="sans-serif" dy="1.5625" font-size="25" fill="#604A0E"/><text text-anchor="middle" pointer-events="none" y="5" font-size="10px" fill="#604A0E" font-family="sans-serif"> Gurdum</text></g><g class="node" transform="translate(31.075243659358893,-64.56725220336864)"><circle class="outline" cx="0" cy="0" r="25" fill="#D9C8AE" stroke="#c0a378" stroke-width="2px"/><text text-anchor="middle" pointer-events="none" font-family="sans-serif" dy="1.5625" font-size="25" fill="#604A0E"/><text text-anchor="middle" pointer-events="none" y="5" font-size="10px" fill="#604A0E" font-family="sans-serif"> Rammam</text></g><g class="node" transform="translate(-61.24084174022191,27.183646443570353)"><circle class="outline" cx="0" cy="0" r="25" fill="#8DCC93" stroke="#5db665" stroke-width="2px"/><text text-anchor="middle" pointer-events="none" font-family="sans-serif" dy="1.5625" font-size="25" fill="#604A0E"/><text text-anchor="middle" pointer-events="none" y="5" font-size="10px" fill="#604A0E" font-family="sans-serif"> Sabargr…</text></g></g></svg>