<svg xmlns="http://www.w3.org/2000/svg" width="401.1908264160156" height="183.31417846679688" viewBox="-146.02276611328125 -26.637855529785156 401.1908264160156 183.31417846679688"><title>Neo4j Graph Visualization</title><desc>Created using Neo4j (http://www.neo4j.com/)</desc><g class="layer relationships"><g class="relationship" transform="translate(226.16805665334743 15.701626292880519) rotate(183.83876671365113)"><path class="outline" fill="#A5ABB6" stroke="none" d="M 21.40063509461097,12.933012701892217 L 21.90063509461097,12.06698729810778 A 99.40769755185279 99.40769755185279 0 0 0 59.724846930774305,24.672707622857175 L 59.60534273510005,25.665541318506286 A 100.40769755185279 100.40769755185279 0 0 1 21.40063509461097,12.933012701892217 Z M 79.00259338842498,26.112173577481585 L 78.9289126876593,25.114891694394018 A 99.40769755185279 99.40769755185279 0 0 0 117.29323836222063,14.263453933942385 L 115.91440888673104,11.599091106262739 L 123.7398898727214,11.490245629079933 L 119.13167766287343,17.815937704181913 L 117.75284818738383,15.151574876502268 A 100.40769755185279 100.40769755185279 0 0 1 79.00259338842498,26.112173577481585"/><text text-anchor="middle" pointer-events="none" font-size="8px" fill="#000000" x="69.30466430357626" y="28.858619647868395" transform="rotate(180 69.30466430357626 25.858619647868395)" font-family="sans-serif">trek</text></g><g class="relationship" transform="translate(80.5525809518818 5.93089353461977) rotate(475.189013018894)"><path class="outline" fill="#A5ABB6" stroke="none" d="M 25 0.5 L 54.10148458763844 0.5 L 54.10148458763844 -0.5 L 25 -0.5 Z M 73.43742208763844 0.5 L 102.53890667527688 0.5 L 102.53890667527688 3.5 L 109.53890667527688 0 L 102.53890667527688 -3.5 L 102.53890667527688 -0.5 L 73.43742208763844 -0.5 Z"/><text text-anchor="middle" pointer-events="none" font-size="8px" fill="#000000" x="63.76945333763844" y="3" transform="rotate(180 63.76945333763844 0)" font-family="sans-serif">trek</text></g><g class="relationship" transform="translate(23.292045307151653 127.67631836470301) rotate(196.4972178940871)"><path class="outline" fill="#A5ABB6" stroke="none" d="M 25 0.5 L 60.00157412355696 0.5 L 60.00157412355696 -0.5 L 25 -0.5 Z M 79.33751162355696 0.5 L 114.33908574711393 0.5 L 114.33908574711393 3.5 L 121.33908574711393 0 L 114.33908574711393 -3.5 L 114.33908574711393 -0.5 L 79.33751162355696 -0.5 Z"/><text text-anchor="middle" pointer-events="none" font-size="8px" fill="#000000" x="69.66954287355696" y="3" transform="rotate(180 69.66954287355696 0)" font-family="sans-serif">trek</text></g><g class="relationship" transform="translate(226.16805665334743 15.701626292880519) rotate(183.83876671365113)"><path class="outline" fill="#A5ABB6" stroke="none" d="M 25 0.5 L 58.46559734335919 0.5 L 58.46559734335919 -0.5 L 25 -0.5 Z M 80.47731609335919 0.5 L 113.94291343671838 0.5 L 113.94291343671838 3.5 L 120.94291343671838 0 L 113.94291343671838 -3.5 L 113.94291343671838 -0.5 L 80.47731609335919 -0.5 Z"/><text text-anchor="middle" pointer-events="none" font-size="8px" fill="#000000" x="69.47145671835919" y="3" transform="rotate(180 69.47145671835919 0)" font-family="sans-serif">road</text></g><g class="relationship" transform="translate(226.16805665334743 15.701626292880519) rotate(183.83876671365113)"><path class="outline" fill="#A5ABB6" stroke="none" d="M 21.40063509461097,-12.933012701892217 L 21.90063509461097,-12.06698729810778 A 99.40769755185279 99.40769755185279 0 0 1 39.209781852376636,-19.958636640769896 L 38.883904653568536,-20.904048747365195 A 100.40769755185279 100.40769755185279 0 0 0 21.40063509461097,-12.933012701892217 Z M 99.92122683441758,-22.309466328168753 L 99.63920918383599,-21.350057111639927 A 99.40769755185279 99.40769755185279 0 0 1 117.29323836222063,-14.263453933942385 L 115.91440888673104,-11.599091106262739 L 123.7398898727214,-11.490245629079933 L 119.13167766287343,-17.815937704181913 L 117.75284818738383,-15.151574876502268 A 100.40769755185279 100.40769755185279 0 0 0 99.92122683441758,-22.309466328168753"/><text text-anchor="middle" pointer-events="none" font-size="8px" fill="#000000" x="69.30466430357626" y="-22.858619647868395" transform="rotate(180 69.30466430357626 -25.858619647868395)" font-family="sans-serif">PublicTransport</text></g></g><g class="layer nodes"><g class="node" transform="translate(226.16805665334743,15.701626292880519)"><circle class="outline" cx="0" cy="0" r="25" fill="#F16667" stroke="#eb2728" stroke-width="2px"/><text text-anchor="middle" pointer-events="none" font-family="sans-serif" dy="1.5625" font-size="25" fill="#FFFFFF"/><text text-anchor="middle" pointer-events="none" y="5" font-size="10px" fill="#FFFFFF" font-family="sans-serif"> Darjeeling</text></g><g class="node" transform="translate(80.5525809518818,5.93089353461977)"><circle class="outline" cx="0" cy="0" r="25" fill="#F16667" stroke="#eb2728" stroke-width="2px"/><text text-anchor="middle" pointer-events="none" font-family="sans-serif" dy="1.5625" font-size="25" fill="#FFFFFF"/><text text-anchor="middle" pointer-events="none" y="5" font-size="10px" fill="#FFFFFF" font-family="sans-serif"> Rimbik</text></g><g class="node" transform="translate(23.292045307151653,127.67631836470301)"><circle class="outline" cx="0" cy="0" r="25" fill="#D9C8AE" stroke="#c0a378" stroke-width="2px"/><text text-anchor="middle" pointer-events="none" font-family="sans-serif" dy="1.5625" font-size="25" fill="#604A0E"/><text text-anchor="middle" pointer-events="none" y="5" font-size="10px" fill="#604A0E" font-family="sans-serif"> BhikeBh…</text></g><g class="node" transform="translate(-117.02277607306613,86.12058568750496)"><circle class="outline" cx="0" cy="0" r="25" fill="#8DCC93" stroke="#5db665" stroke-width="2px"/><text text-anchor="middle" pointer-events="none" font-family="sans-serif" dy="1.5625" font-size="25" fill="#604A0E"/><text text-anchor="middle" pointer-events="none" y="5" font-size="10px" fill="#604A0E" font-family="sans-serif"> Sandak…</text></g></g></svg>