<svg xmlns="http://www.w3.org/2000/svg" width="456.7259521484375" height="428.3604736328125" viewBox="-176.968505859375 -65.38322448730469 456.7259521484375 428.3604736328125"><title>Neo4j Graph Visualization</title><desc>Created using Neo4j (http://www.neo4j.com/)</desc><g class="layer relationships"><g class="relationship" transform="translate(46.18386401674589 333.97723833360664) rotate(320.56177861679083)"><path class="outline" fill="#A5ABB6" stroke="none" d="M 25 0.5 L 29.51896191009788 0.5 L 29.51896191009788 -0.5 L 25 -0.5 Z M 76.40958691009789 0.5 L 80.92854882019576 0.5 L 80.92854882019576 3.5 L 87.92854882019576 0 L 80.92854882019576 -3.5 L 80.92854882019576 -0.5 L 76.40958691009789 -0.5 Z"/><text text-anchor="middle" pointer-events="none" font-size="8px" fill="#000000" x="52.96427441009788" y="3" font-family="sans-serif">DIRECTED</text></g><g class="relationship" transform="translate(65.093014182108 151.05685251830954) rotate(350.60708392955064)"><path class="outline" fill="#A5ABB6" stroke="none" d="M 24.018736134675446,6.953439040707552 L 24.277555179777966,5.987513214418485 A 91.63041079371995 91.63041079371995 0 0 0 28.79184607759665,7.0753052221731565 L 28.58229332802544,8.05310256577107 A 92.63041079371995 92.63041079371995 0 0 1 24.018736134675446,6.953439040707552 Z M 64.31920284095473,8.65968329110386 L 64.14295454304369,7.675337550277263 A 91.63041079371995 91.63041079371995 0 0 0 68.69156171316227,6.741374716857821 L 68.01389441045865,3.818915644972231 L 75.62357743134592,5.647227522530276 L 69.59511811676711,10.637986812705273 L 68.91745081406349,7.715527740819684 A 92.63041079371995 92.63041079371995 0 0 1 64.31920284095473,8.65968329110386"/><text text-anchor="middle" pointer-events="none" font-size="8px" fill="#000000" x="46.42969953740137" y="12.596475231209894" font-family="sans-serif">WROTE</text></g><g class="relationship" transform="translate(65.093014182108 151.05685251830954) rotate(418.4349816163079)"><path class="outline" fill="#A5ABB6" stroke="none" d="M 25 0.5 L 38.299347458682746 0.5 L 38.299347458682746 -0.5 L 25 -0.5 Z M 85.18997245868275 0.5 L 98.48931991736549 0.5 L 98.48931991736549 3.5 L 105.48931991736549 0 L 98.48931991736549 -3.5 L 98.48931991736549 -0.5 L 85.18997245868275 -0.5 Z"/><text text-anchor="middle" pointer-events="none" font-size="8px" fill="#000000" x="61.744659958682746" y="3" font-family="sans-serif">DIRECTED</text></g><g class="relationship" transform="translate(65.093014182108 151.05685251830954) rotate(350.60708392955064)"><path class="outline" fill="#A5ABB6" stroke="none" d="M 24.018736134675446,-6.953439040707552 L 24.277555179777966,-5.987513214418485 A 91.63041079371995 91.63041079371995 0 0 1 25.346328907210278,-6.266996061691273 L 25.09917382517607,-7.235971998144123 A 92.63041079371995 92.63041079371995 0 0 0 24.018736134675446,-6.953439040707552 Z M 67.82804710390694,-7.961230877530099 L 67.61391875955233,-6.984425343074065 A 91.63041079371995 91.63041079371995 0 0 1 68.69156171316227,-6.741374716857821 L 68.01389441045865,-3.818915644972231 L 75.62357743134592,-5.647227522530276 L 69.59511811676711,-10.637986812705273 L 68.91745081406349,-7.715527740819684 A 92.63041079371995 92.63041079371995 0 0 0 67.82804710390694,-7.961230877530099"/><text text-anchor="middle" pointer-events="none" font-size="8px" fill="#000000" x="46.42969953740135" y="-6.596475231209894" font-family="sans-serif">PRODU…</text></g><g class="relationship" transform="translate(65.093014182108 151.05685251830954) rotate(317.5606824440714)"><path class="outline" fill="#A5ABB6" stroke="none" d="M 25 0.5 L 27.387394969877107 0.5 L 27.387394969877107 -0.5 L 25 -0.5 Z M 74.2780199698771 0.5 L 76.66541493975421 0.5 L 76.66541493975421 3.5 L 83.66541493975421 0 L 76.66541493975421 -3.5 L 76.66541493975421 -0.5 L 74.2780199698771 -0.5 Z"/><text text-anchor="middle" pointer-events="none" font-size="8px" fill="#000000" x="50.83270746987711" y="3" font-family="sans-serif">DIRECTED</text></g><g class="relationship" transform="translate(65.093014182108 151.05685251830954) rotate(336.36262449494313)"><path class="outline" fill="#A5ABB6" stroke="none" d="M 25 0.5 L 48.828841522409036 0.5 L 48.828841522409036 -0.5 L 25 -0.5 Z M 95.71946652240904 0.5 L 119.54830804481807 0.5 L 119.54830804481807 3.5 L 126.54830804481807 0 L 119.54830804481807 -3.5 L 119.54830804481807 -0.5 L 95.71946652240904 -0.5 Z"/><text text-anchor="middle" pointer-events="none" font-size="8px" fill="#000000" x="72.27415402240904" y="3" font-family="sans-serif">DIRECTED</text></g><g class="relationship" transform="translate(65.093014182108 151.05685251830954) rotate(391.6532908902517)"><path class="outline" fill="#A5ABB6" stroke="none" d="M 25 0.5 L 25.607345725579393 0.5 L 25.607345725579393 -0.5 L 25 -0.5 Z M 72.49797072557939 0.5 L 73.10531645115879 0.5 L 73.10531645115879 3.5 L 80.10531645115879 0 L 73.10531645115879 -3.5 L 73.10531645115879 -0.5 L 72.49797072557939 -0.5 Z"/><text text-anchor="middle" pointer-events="none" font-size="8px" fill="#000000" x="49.05265822557939" y="3" font-family="sans-serif">DIRECTED</text></g><g class="relationship" transform="translate(250.7574374823019 186.35458159811031) rotate(210.67141963488905)"><path class="outline" fill="#A5ABB6" stroke="none" d="M 24.018736134675446,6.953439040707552 L 24.277555179777966,5.987513214418485 A 94.04965757683236 94.04965757683236 0 0 0 25.935016698259734,6.415500383757433 L 25.69382091262658,7.385976861057529 A 95.04965757683236 95.04965757683236 0 0 1 24.018736134675446,6.953439040707552 Z M 68.43649352194947,8.10337263077588 L 68.22800149492772,7.125348564268123 A 94.04965757683236 94.04965757683236 0 0 0 69.89889212899818,6.7532246718046895 L 69.22011790702142,3.831022496119402 L 76.83049290925999,5.656451849806436 L 70.8039244249672,10.649494239385072 L 70.12515020299044,7.727292063699785 A 95.04965757683236 95.04965757683236 0 0 1 68.43649352194947,8.10337263077588"/><text text-anchor="middle" pointer-events="none" font-size="8px" fill="#000000" x="47.03269367958387" y="12.678862850167462" transform="rotate(180 47.03269367958387 9.678862850167462)" font-family="sans-serif">PRODU…</text></g><g class="relationship" transform="translate(250.7574374823019 186.35458159811031) rotate(210.67141963488905)"><path class="outline" fill="#A5ABB6" stroke="none" d="M 24.018736134675446,-6.953439040707552 L 24.277555179777966,-5.987513214418485 A 94.04965757683236 94.04965757683236 0 0 1 29.385539246175284,-7.204438179415163 L 29.181031765814236,-8.183303180565161 A 95.04965757683236 95.04965757683236 0 0 0 24.018736134675446,-6.953439040707552 Z M 64.92448962868721,-8.783223679227149 L 64.75294674996117,-7.798047024632453 A 94.04965757683236 94.04965757683236 0 0 1 69.89889212899818,-6.7532246718046895 L 69.22011790702142,-3.831022496119402 L 76.83049290925999,-5.656451849806436 L 70.8039244249672,-10.649494239385072 L 70.12515020299044,-7.727292063699785 A 95.04965757683236 95.04965757683236 0 0 0 64.92448962868721,-8.783223679227149"/><text text-anchor="middle" pointer-events="none" font-size="8px" fill="#000000" x="47.03269367958385" y="-6.678862850167462" transform="rotate(180 47.03269367958385 -9.678862850167462)" font-family="sans-serif">WROTE</text></g><g class="relationship" transform="translate(250.7574374823019 186.35458159811031) rotate(507.1126862750737)"><path class="outline" fill="#A5ABB6" stroke="none" d="M 25 0.5 L 42.93209748773741 0.5 L 42.93209748773741 -0.5 L 25 -0.5 Z M 89.82272248773741 0.5 L 107.75481997547482 0.5 L 107.75481997547482 3.5 L 114.75481997547482 0 L 107.75481997547482 -3.5 L 107.75481997547482 -0.5 L 89.82272248773741 -0.5 Z"/><text text-anchor="middle" pointer-events="none" font-size="8px" fill="#000000" x="66.37740998773741" y="3" transform="rotate(180 66.37740998773741 0)" font-family="sans-serif">DIRECTED</text></g><g class="relationship" transform="translate(250.7574374823019 186.35458159811031) rotate(225.84452647209184)"><path class="outline" fill="#A5ABB6" stroke="none" d="M 25 0.5 L 48.757381595937744 0.5 L 48.757381595937744 -0.5 L 25 -0.5 Z M 95.64800659593774 0.5 L 119.40538819187549 0.5 L 119.40538819187549 3.5 L 126.40538819187549 0 L 119.40538819187549 -3.5 L 119.40538819187549 -0.5 L 95.64800659593774 -0.5 Z"/><text text-anchor="middle" pointer-events="none" font-size="8px" fill="#000000" x="72.20269409593774" y="3" transform="rotate(180 72.20269409593774 0)" font-family="sans-serif">DIRECTED</text></g><g class="relationship" transform="translate(250.7574374823019 186.35458159811031) rotate(244.0101381779059)"><path class="outline" fill="#A5ABB6" stroke="none" d="M 25 0.5 L 26.488640289283722 0.5 L 26.488640289283722 -0.5 L 25 -0.5 Z M 73.37926528928372 0.5 L 74.86790557856744 0.5 L 74.86790557856744 3.5 L 81.86790557856744 0 L 74.86790557856744 -3.5 L 74.86790557856744 -0.5 L 73.37926528928372 -0.5 Z"/><text text-anchor="middle" pointer-events="none" font-size="8px" fill="#000000" x="49.93395278928372" y="3" transform="rotate(180 49.93395278928372 0)" font-family="sans-serif">DIRECTED</text></g><g class="relationship" transform="translate(250.7574374823019 186.35458159811031) rotate(528.3352664031414)"><path class="outline" fill="#A5ABB6" stroke="none" d="M 25 0.5 L 26.166296369804428 0.5 L 26.166296369804428 -0.5 L 25 -0.5 Z M 65.05692136980443 0.5 L 66.22321773960886 0.5 L 66.22321773960886 3.5 L 73.22321773960886 0 L 66.22321773960886 -3.5 L 66.22321773960886 -0.5 L 65.05692136980443 -0.5 Z"/><text text-anchor="middle" pointer-events="none" font-size="8px" fill="#000000" x="45.61160886980443" y="3" transform="rotate(180 45.61160886980443 0)" font-family="sans-serif">DIREC…</text></g><g class="relationship" transform="translate(175.7833467084508 -2.9767149186397313) rotate(455.00195210100975)"><path class="outline" fill="#A5ABB6" stroke="none" d="M 25 0.5 L 42.176350099478384 0.5 L 42.176350099478384 -0.5 L 25 -0.5 Z M 89.06697509947838 0.5 L 106.24332519895677 0.5 L 106.24332519895677 3.5 L 113.24332519895677 0 L 106.24332519895677 -3.5 L 106.24332519895677 -0.5 L 89.06697509947838 -0.5 Z"/><text text-anchor="middle" pointer-events="none" font-size="8px" fill="#000000" x="65.62166259947838" y="3" transform="rotate(180 65.62166259947838 0)" font-family="sans-serif">DIRECTED</text></g><g class="relationship" transform="translate(-147.96850672938214 65.315382560454) rotate(290.42790709607203)"><path class="outline" fill="#A5ABB6" stroke="none" d="M 25 0.5 L 27.316397980504426 0.5 L 27.316397980504426 -0.5 L 25 -0.5 Z M 74.20702298050443 0.5 L 76.52342096100885 0.5 L 76.52342096100885 3.5 L 83.52342096100885 0 L 76.52342096100885 -3.5 L 76.52342096100885 -0.5 L 74.20702298050443 -0.5 Z"/><text text-anchor="middle" pointer-events="none" font-size="8px" fill="#000000" x="50.761710480504426" y="3" font-family="sans-serif">DIRECTED</text></g></g><g class="layer nodes"><g class="node" transform="translate(133.39970928178948,262.2398458988428)"><circle class="outline" cx="0" cy="0" r="25" fill="#F79767" stroke="#f36924" stroke-width="2px"/><text text-anchor="middle" pointer-events="none" font-family="sans-serif" dy="1.5625" font-size="25" fill="#FFFFFF"/><text text-anchor="middle" pointer-events="none" font-family="sans-serif" dy="1.5625" font-size="25" fill="#FFFFFF"/><text text-anchor="middle" pointer-events="none" y="0" font-size="10px" fill="#FFFFFF" font-family="sans-serif"> Cloud</text><text text-anchor="middle" pointer-events="none" y="10" font-size="10px" fill="#FFFFFF" font-family="sans-serif"> Atlas</text></g><g class="node" transform="translate(46.18386401674589,333.97723833360664)"><circle class="outline" cx="0" cy="0" r="25" fill="#57C7E3" stroke="#23b3d7" stroke-width="2px"/><text text-anchor="middle" pointer-events="none" font-family="sans-serif" dy="1.5625" font-size="25" fill="#FFFFFF"/><text text-anchor="middle" pointer-events="none" font-family="sans-serif" dy="1.5625" font-size="25" fill="#FFFFFF"/><text text-anchor="middle" pointer-events="none" y="0" font-size="10px" fill="#FFFFFF" font-family="sans-serif"> Tom</text><text text-anchor="middle" pointer-events="none" y="10" font-size="10px" fill="#FFFFFF" font-family="sans-serif"> Tykwer</text></g><g class="node" transform="translate(65.093014182108,151.05685251830954)"><circle class="outline" cx="0" cy="0" r="25" fill="#57C7E3" stroke="#23b3d7" stroke-width="2px"/><text text-anchor="middle" pointer-events="none" font-family="sans-serif" dy="1.5625" font-size="25" fill="#FFFFFF"/><text text-anchor="middle" pointer-events="none" font-family="sans-serif" dy="1.5625" font-size="25" fill="#FFFFFF"/><text text-anchor="middle" pointer-events="none" y="0" font-size="10px" fill="#FFFFFF" font-family="sans-serif"> Lilly</text><text text-anchor="middle" pointer-events="none" y="10" font-size="10px" fill="#FFFFFF" font-family="sans-serif"> Wacho…</text></g><g class="node" transform="translate(250.7574374823019,186.35458159811031)"><circle class="outline" cx="0" cy="0" r="25" fill="#57C7E3" stroke="#23b3d7" stroke-width="2px"/><text text-anchor="middle" pointer-events="none" font-family="sans-serif" dy="1.5625" font-size="25" fill="#FFFFFF"/><text text-anchor="middle" pointer-events="none" font-family="sans-serif" dy="1.5625" font-size="25" fill="#FFFFFF"/><text text-anchor="middle" pointer-events="none" y="0" font-size="10px" fill="#FFFFFF" font-family="sans-serif"> Lana</text><text text-anchor="middle" pointer-events="none" y="10" font-size="10px" fill="#FFFFFF" font-family="sans-serif"> Wacho…</text></g><g class="node" transform="translate(163.7299549192697,134.7401421048961)"><circle class="outline" cx="0" cy="0" r="25" fill="#F79767" stroke="#f36924" stroke-width="2px"/><text text-anchor="middle" pointer-events="none" font-family="sans-serif" dy="1.5625" font-size="25" fill="#FFFFFF"/><text text-anchor="middle" pointer-events="none" font-family="sans-serif" dy="1.5625" font-size="25" fill="#FFFFFF"/><text text-anchor="middle" pointer-events="none" y="0" font-size="10px" fill="#FFFFFF" font-family="sans-serif"> V for</text><text text-anchor="middle" pointer-events="none" y="10" font-size="10px" fill="#FFFFFF" font-family="sans-serif"> Vendetta</text></g><g class="node" transform="translate(175.7833467084508,-2.9767149186397313)"><circle class="outline" cx="0" cy="0" r="25" fill="#57C7E3" stroke="#23b3d7" stroke-width="2px"/><text text-anchor="middle" pointer-events="none" font-family="sans-serif" dy="1.5625" font-size="25" fill="#FFFFFF"/><text text-anchor="middle" pointer-events="none" font-family="sans-serif" dy="1.5625" font-size="25" fill="#FFFFFF"/><text text-anchor="middle" pointer-events="none" y="0" font-size="10px" fill="#FFFFFF" font-family="sans-serif"> James</text><text text-anchor="middle" pointer-events="none" y="10" font-size="10px" fill="#FFFFFF" font-family="sans-serif"> Marshall</text></g><g class="node" transform="translate(145.28726959976063,77.72845554935044)"><circle class="outline" cx="0" cy="0" r="25" fill="#F79767" stroke="#f36924" stroke-width="2px"/><text text-anchor="middle" pointer-events="none" font-family="sans-serif" dy="1.5625" font-size="25" fill="#FFFFFF"/><text text-anchor="middle" pointer-events="none" font-family="sans-serif" dy="1.5625" font-size="25" fill="#FFFFFF"/><text text-anchor="middle" pointer-events="none" font-family="sans-serif" dy="1.5625" font-size="25" fill="#FFFFFF"/><text text-anchor="middle" pointer-events="none" y="-5" font-size="10px" fill="#FFFFFF" font-family="sans-serif"> The</text><text text-anchor="middle" pointer-events="none" y="5" font-size="10px" fill="#FFFFFF" font-family="sans-serif"> Matrix</text><text text-anchor="middle" pointer-events="none" y="15" font-size="10px" fill="#FFFFFF" font-family="sans-serif"> Revol…</text></g><g class="node" transform="translate(203.9266278154032,90.2940563617141)"><circle class="outline" cx="0" cy="0" r="25" fill="#F79767" stroke="#f36924" stroke-width="2px"/><text text-anchor="middle" pointer-events="none" font-family="sans-serif" dy="1.5625" font-size="25" fill="#FFFFFF"/><text text-anchor="middle" pointer-events="none" font-family="sans-serif" dy="1.5625" font-size="25" fill="#FFFFFF"/><text text-anchor="middle" pointer-events="none" font-family="sans-serif" dy="1.5625" font-size="25" fill="#FFFFFF"/><text text-anchor="middle" pointer-events="none" y="-5" font-size="10px" fill="#FFFFFF" font-family="sans-serif"> The</text><text text-anchor="middle" pointer-events="none" y="5" font-size="10px" fill="#FFFFFF" font-family="sans-serif"> Matrix</text><text text-anchor="middle" pointer-events="none" y="15" font-size="10px" fill="#FFFFFF" font-family="sans-serif"> Reloa…</text></g><g class="node" transform="translate(154.56278027583437,206.21379679037852)"><circle class="outline" cx="0" cy="0" r="25" fill="#F79767" stroke="#f36924" stroke-width="2px"/><text text-anchor="middle" pointer-events="none" font-family="sans-serif" dy="1.5625" font-size="25" fill="#FFFFFF"/><text text-anchor="middle" pointer-events="none" font-family="sans-serif" dy="1.5625" font-size="25" fill="#FFFFFF"/><text text-anchor="middle" pointer-events="none" y="0" font-size="10px" fill="#FFFFFF" font-family="sans-serif"> The</text><text text-anchor="middle" pointer-events="none" y="10" font-size="10px" fill="#FFFFFF" font-family="sans-serif"> Matrix</text></g><g class="node" transform="translate(-110.09073679688278,-36.38322825611999)"><circle class="outline" cx="0" cy="0" r="25" fill="#F79767" stroke="#f36924" stroke-width="2px"/><text text-anchor="middle" pointer-events="none" font-family="sans-serif" dy="1.5625" font-size="25" fill="#FFFFFF"/><text text-anchor="middle" pointer-events="none" font-family="sans-serif" dy="1.5625" font-size="25" fill="#FFFFFF"/><text text-anchor="middle" pointer-events="none" font-family="sans-serif" dy="1.5625" font-size="25" fill="#FFFFFF"/><text text-anchor="middle" pointer-events="none" y="-5" font-size="10px" fill="#FFFFFF" font-family="sans-serif"> Captain</text><text text-anchor="middle" pointer-events="none" y="5" font-size="10px" fill="#FFFFFF" font-family="sans-serif"> America:</text><text text-anchor="middle" pointer-events="none" y="15" font-size="10px" fill="#FFFFFF" font-family="sans-serif"> The Fi…</text></g><g class="node" transform="translate(-147.96850672938214,65.315382560454)"><circle class="outline" cx="0" cy="0" r="25" fill="#57C7E3" stroke="#23b3d7" stroke-width="2px"/><text text-anchor="middle" pointer-events="none" font-family="sans-serif" dy="1.5625" font-size="25" fill="#FFFFFF"/><text text-anchor="middle" pointer-events="none" font-family="sans-serif" dy="1.5625" font-size="25" fill="#FFFFFF"/><text text-anchor="middle" pointer-events="none" y="0" font-size="10px" fill="#FFFFFF" font-family="sans-serif"> Joe</text><text text-anchor="middle" pointer-events="none" y="10" font-size="10px" fill="#FFFFFF" font-family="sans-serif"> Johnston</text></g></g></svg>