<svg xmlns="http://www.w3.org/2000/svg" width="721.502685546875" height="380.1718444824219" viewBox="-210.28390502929688 -191.31045532226562 721.502685546875 380.1718444824219"><title>Neo4j Graph Visualization</title><desc>Created using Neo4j (http://www.neo4j.com/)</desc><g class="layer relationships"><g class="relationship" transform="translate(135.53244117674694 -72.28359501225741) rotate(333.6986431352418)"><path class="outline" fill="#A5ABB6" stroke="none" d="M 25 0.5 L 25.287556656740342 0.5 L 25.287556656740342 -0.5 L 25 -0.5 Z M 55.28755665674034 0.5 L 55.575113313480685 0.5 L 55.575113313480685 3.5 L 62.575113313480685 0 L 55.575113313480685 -3.5 L 55.575113313480685 -0.5 L 55.28755665674034 -0.5 Z"/><text text-anchor="middle" pointer-events="none" font-size="8px" fill="#000000" x="40.28755665674034" y="3" font-family="sans-serif">ACT…</text></g><g class="relationship" transform="translate(135.53244117674694 -72.28359501225741) rotate(394.5854564504837)"><path class="outline" fill="#A5ABB6" stroke="none" d="M 25 0.5 L 90.27711678070426 0.5 L 90.27711678070426 -0.5 L 25 -0.5 Z M 135.83961678070426 0.5 L 201.11673356140852 0.5 L 201.11673356140852 3.5 L 208.11673356140852 0 L 201.11673356140852 -3.5 L 201.11673356140852 -0.5 L 135.83961678070426 -0.5 Z"/><text text-anchor="middle" pointer-events="none" font-size="8px" fill="#000000" x="113.05836678070426" y="3" font-family="sans-serif">ACTED_IN</text></g><g class="relationship" transform="translate(135.53244117674694 -72.28359501225741) rotate(366.0763602841886)"><path class="outline" fill="#A5ABB6" stroke="none" d="M 25 0.5 L 148.0413185266651 0.5 L 148.0413185266651 -0.5 L 25 -0.5 Z M 193.6038185266651 0.5 L 316.6451370533302 0.5 L 316.6451370533302 3.5 L 323.6451370533302 0 L 316.6451370533302 -3.5 L 316.6451370533302 -0.5 L 193.6038185266651 -0.5 Z"/><text text-anchor="middle" pointer-events="none" font-size="8px" fill="#000000" x="170.8225685266651" y="3" font-family="sans-serif">ACTED_IN</text></g><g class="relationship" transform="translate(135.53244117674694 -72.28359501225741) rotate(539.1718139040554)"><path class="outline" fill="#A5ABB6" stroke="none" d="M 25 0.5 L 28.37562872235695 0.5 L 28.37562872235695 -0.5 L 25 -0.5 Z M 73.93812872235695 0.5 L 77.3137574447139 0.5 L 77.3137574447139 3.5 L 84.3137574447139 0 L 77.3137574447139 -3.5 L 77.3137574447139 -0.5 L 73.93812872235695 -0.5 Z"/><text text-anchor="middle" pointer-events="none" font-size="8px" fill="#000000" x="51.15687872235695" y="3" transform="rotate(180 51.15687872235695 0)" font-family="sans-serif">ACTED_IN</text></g><g class="relationship" transform="translate(135.53244117674694 -72.28359501225741) rotate(197.41217965969213)"><path class="outline" fill="#A5ABB6" stroke="none" d="M 25 0.5 L 90.92016020934138 0.5 L 90.92016020934138 -0.5 L 25 -0.5 Z M 136.48266020934136 0.5 L 202.40282041868275 0.5 L 202.40282041868275 3.5 L 209.40282041868275 0 L 202.40282041868275 -3.5 L 202.40282041868275 -0.5 L 136.48266020934136 -0.5 Z"/><text text-anchor="middle" pointer-events="none" font-size="8px" fill="#000000" x="113.70141020934138" y="3" transform="rotate(180 113.70141020934138 0)" font-family="sans-serif">ACTED_IN</text></g><g class="relationship" transform="translate(-68.1890705862262 70.94294373490536) rotate(349.066952617388)"><path class="outline" fill="#A5ABB6" stroke="none" d="M 25 0.5 L 254.0101119172018 0.5 L 254.0101119172018 -0.5 L 25 -0.5 Z M 299.5726119172018 0.5 L 528.5827238344036 0.5 L 528.5827238344036 3.5 L 535.5827238344036 0 L 528.5827238344036 -3.5 L 528.5827238344036 -0.5 L 299.5726119172018 -0.5 Z"/><text text-anchor="middle" pointer-events="none" font-size="8px" fill="#000000" x="276.7913619172018" y="3" font-family="sans-serif">ACTED_IN</text></g><g class="relationship" transform="translate(-68.1890705862262 70.94294373490536) rotate(303.6867537738614)"><path class="outline" fill="#A5ABB6" stroke="none" d="M 25 0.5 L 58.834427418853664 0.5 L 58.834427418853664 -0.5 L 25 -0.5 Z M 104.39692741885366 0.5 L 138.23135483770733 0.5 L 138.23135483770733 3.5 L 145.23135483770733 0 L 138.23135483770733 -3.5 L 138.23135483770733 -0.5 L 104.39692741885366 -0.5 Z"/><text text-anchor="middle" pointer-events="none" font-size="8px" fill="#000000" x="81.61567741885366" y="3" font-family="sans-serif">ACTED_IN</text></g><g class="relationship" transform="translate(-68.1890705862262 70.94294373490536) rotate(264.66100891924845)"><path class="outline" fill="#A5ABB6" stroke="none" d="M 25 0.5 L 80.86865354674522 0.5 L 80.86865354674522 -0.5 L 25 -0.5 Z M 126.43115354674522 0.5 L 182.29980709349044 0.5 L 182.29980709349044 3.5 L 189.29980709349044 0 L 182.29980709349044 -3.5 L 182.29980709349044 -0.5 L 126.43115354674522 -0.5 Z"/><text text-anchor="middle" pointer-events="none" font-size="8px" fill="#000000" x="103.64990354674522" y="3" transform="rotate(180 103.64990354674522 0)" font-family="sans-serif">ACTED_IN</text></g><g class="relationship" transform="translate(101.41536775508553 -162.3104588358456) rotate(378.4346517509743)"><path class="outline" fill="#A5ABB6" stroke="none" d="M 25 0.5 L 174.41942704637796 0.5 L 174.41942704637796 -0.5 L 25 -0.5 Z M 219.98192704637796 0.5 L 369.4013540927559 0.5 L 369.4013540927559 3.5 L 376.4013540927559 0 L 369.4013540927559 -3.5 L 369.4013540927559 -0.5 L 219.98192704637796 -0.5 Z"/><text text-anchor="middle" pointer-events="none" font-size="8px" fill="#000000" x="197.20067704637796" y="3" font-family="sans-serif">ACTED_IN</text></g><g class="relationship" transform="translate(101.41536775508553 -162.3104588358456) rotate(489.37702956658694)"><path class="outline" fill="#A5ABB6" stroke="none" d="M 25 0.5 L 32.973806268730506 0.5 L 32.973806268730506 -0.5 L 25 -0.5 Z M 78.5363062687305 0.5 L 86.51011253746101 0.5 L 86.51011253746101 3.5 L 93.51011253746101 0 L 86.51011253746101 -3.5 L 86.51011253746101 -0.5 L 78.5363062687305 -0.5 Z"/><text text-anchor="middle" pointer-events="none" font-size="8px" fill="#000000" x="55.755056268730506" y="3" transform="rotate(180 55.755056268730506 0)" font-family="sans-serif">ACTED_IN</text></g><g class="relationship" transform="translate(101.41536775508553 -162.3104588358456) rotate(534.0115506161926)"><path class="outline" fill="#A5ABB6" stroke="none" d="M 25 0.5 L 69.01108787897591 0.5 L 69.01108787897591 -0.5 L 25 -0.5 Z M 114.57358787897591 0.5 L 158.58467575795183 0.5 L 158.58467575795183 3.5 L 165.58467575795183 0 L 158.58467575795183 -3.5 L 158.58467575795183 -0.5 L 114.57358787897591 -0.5 Z"/><text text-anchor="middle" pointer-events="none" font-size="8px" fill="#000000" x="91.79233787897591" y="3" transform="rotate(180 91.79233787897591 0)" font-family="sans-serif">ACTED_IN</text></g><g class="relationship" transform="translate(75.45207391904611 25.92689486416954) rotate(225.82376319370172)"><path class="outline" fill="#A5ABB6" stroke="none" d="M 25 0.5 L 91.08776402517535 0.5 L 91.08776402517535 -0.5 L 25 -0.5 Z M 136.65026402517535 0.5 L 202.7380280503507 0.5 L 202.7380280503507 3.5 L 209.7380280503507 0 L 202.7380280503507 -3.5 L 202.7380280503507 -0.5 L 136.65026402517535 -0.5 Z"/><text text-anchor="middle" pointer-events="none" font-size="8px" fill="#000000" x="113.86901402517535" y="3" transform="rotate(180 113.86901402517535 0)" font-family="sans-serif">ACTED_IN</text></g><g class="relationship" transform="translate(75.45207391904611 25.92689486416954) rotate(456.1570431580404)"><path class="outline" fill="#A5ABB6" stroke="none" d="M 25 0.5 L 41.07452542111848 0.5 L 41.07452542111848 -0.5 L 25 -0.5 Z M 86.63702542111848 0.5 L 102.71155084223696 0.5 L 102.71155084223696 3.5 L 109.71155084223696 0 L 102.71155084223696 -3.5 L 102.71155084223696 -0.5 L 86.63702542111848 -0.5 Z"/><text text-anchor="middle" pointer-events="none" font-size="8px" fill="#000000" x="63.85577542111848" y="3" transform="rotate(180 63.85577542111848 0)" font-family="sans-serif">ACTED_IN</text></g><g class="relationship" transform="translate(75.45207391904611 25.92689486416954) rotate(486.88170838856826)"><path class="outline" fill="#A5ABB6" stroke="none" d="M 25 0.5 L 37.50244682552865 0.5 L 37.50244682552865 -0.5 L 25 -0.5 Z M 83.06494682552865 0.5 L 95.5673936510573 0.5 L 95.5673936510573 3.5 L 102.5673936510573 0 L 95.5673936510573 -3.5 L 95.5673936510573 -0.5 L 83.06494682552865 -0.5 Z"/><text text-anchor="middle" pointer-events="none" font-size="8px" fill="#000000" x="60.28369682552865" y="3" transform="rotate(180 60.28369682552865 0)" font-family="sans-serif">ACTED_IN</text></g><g class="relationship" transform="translate(75.45207391904611 25.92689486416954) rotate(426.30828852150415)"><path class="outline" fill="#A5ABB6" stroke="none" d="M 25 0.5 L 40.3773418888525 0.5 L 40.3773418888525 -0.5 L 25 -0.5 Z M 85.9398418888525 0.5 L 101.317183777705 0.5 L 101.317183777705 3.5 L 108.317183777705 0 L 101.317183777705 -3.5 L 101.317183777705 -0.5 L 85.9398418888525 -0.5 Z"/><text text-anchor="middle" pointer-events="none" font-size="8px" fill="#000000" x="63.1585918888525" y="3" font-family="sans-serif">ACTED_IN</text></g><g class="relationship" transform="translate(75.45207391904611 25.92689486416954) rotate(392.5095432300201)"><path class="outline" fill="#A5ABB6" stroke="none" d="M 25 0.5 L 35.32528667367318 0.5 L 35.32528667367318 -0.5 L 25 -0.5 Z M 80.88778667367319 0.5 L 91.21307334734637 0.5 L 91.21307334734637 3.5 L 98.21307334734637 0 L 91.21307334734637 -3.5 L 91.21307334734637 -0.5 L 80.88778667367319 -0.5 Z"/><text text-anchor="middle" pointer-events="none" font-size="8px" fill="#000000" x="58.10653667367318" y="3" font-family="sans-serif">ACTED_IN</text></g><g class="relationship" transform="translate(75.45207391904611 25.92689486416954) rotate(351.429279688008)"><path class="outline" fill="#A5ABB6" stroke="none" d="M 25 0.5 L 179.39900579991703 0.5 L 179.39900579991703 -0.5 L 25 -0.5 Z M 224.96150579991703 0.5 L 379.36051159983407 0.5 L 379.36051159983407 3.5 L 386.36051159983407 0 L 379.36051159983407 -3.5 L 379.36051159983407 -0.5 L 224.96150579991703 -0.5 Z"/><text text-anchor="middle" pointer-events="none" font-size="8px" fill="#000000" x="202.18025579991703" y="3" font-family="sans-serif">ACTED_IN</text></g><g class="relationship" transform="translate(75.45207391904611 25.92689486416954) rotate(243.00645332655927)"><path class="outline" fill="#A5ABB6" stroke="none" d="M 25 0.5 L 27.941089503648918 0.5 L 27.941089503648918 -0.5 L 25 -0.5 Z M 73.50358950364893 0.5 L 76.44467900729784 0.5 L 76.44467900729784 3.5 L 83.44467900729784 0 L 76.44467900729784 -3.5 L 76.44467900729784 -0.5 L 73.50358950364893 -0.5 Z"/><text text-anchor="middle" pointer-events="none" font-size="8px" fill="#000000" x="50.72233950364892" y="3" transform="rotate(180 50.72233950364892 0)" font-family="sans-serif">ACTED_IN</text></g><g class="relationship" transform="translate(-181.28391168863251 -116.9655321663256) rotate(344.7129388368887)"><path class="outline" fill="#A5ABB6" stroke="none" d="M 25 0.5 L 27.11784617024268 0.5 L 27.11784617024268 -0.5 L 25 -0.5 Z M 62.45378367024268 0.5 L 64.57162984048536 0.5 L 64.57162984048536 3.5 L 71.57162984048536 0 L 64.57162984048536 -3.5 L 64.57162984048536 -0.5 L 62.45378367024268 -0.5 Z"/><text text-anchor="middle" pointer-events="none" font-size="8px" fill="#000000" x="44.78581492024268" y="3" font-family="sans-serif">ACTE…</text></g></g><g class="layer nodes"><g class="node" transform="translate(26.23010325258801,-70.70356621672462)"><circle class="outline" cx="0" cy="0" r="25" fill="#F79767" stroke="#f36924" stroke-width="2px"/><text text-anchor="middle" pointer-events="none" font-family="sans-serif" dy="1.5625" font-size="25" fill="#FFFFFF"/><text text-anchor="middle" pointer-events="none" font-family="sans-serif" dy="1.5625" font-size="25" fill="#FFFFFF"/><text text-anchor="middle" pointer-events="none" font-family="sans-serif" dy="1.5625" font-size="25" fill="#FFFFFF"/><text text-anchor="middle" pointer-events="none" y="-5" font-size="10px" fill="#FFFFFF" font-family="sans-serif"> The</text><text text-anchor="middle" pointer-events="none" y="5" font-size="10px" fill="#FFFFFF" font-family="sans-serif"> Matrix</text><text text-anchor="middle" pointer-events="none" y="15" font-size="10px" fill="#FFFFFF" font-family="sans-serif"> Reloa…</text></g><g class="node" transform="translate(135.53244117674694,-72.28359501225741)"><circle class="outline" cx="0" cy="0" r="25" fill="#57C7E3" stroke="#23b3d7" stroke-width="2px"/><text text-anchor="middle" pointer-events="none" font-family="sans-serif" dy="1.5625" font-size="25" fill="#FFFFFF"/><text text-anchor="middle" pointer-events="none" font-family="sans-serif" dy="1.5625" font-size="25" fill="#FFFFFF"/><text text-anchor="middle" pointer-events="none" y="0" font-size="10px" fill="#FFFFFF" font-family="sans-serif"> Hugo</text><text text-anchor="middle" pointer-events="none" y="10" font-size="10px" fill="#FFFFFF" font-family="sans-serif"> Weaving</text></g><g class="node" transform="translate(-68.1890705862262,70.94294373490536)"><circle class="outline" cx="0" cy="0" r="25" fill="#57C7E3" stroke="#23b3d7" stroke-width="2px"/><text text-anchor="middle" pointer-events="none" font-family="sans-serif" dy="1.5625" font-size="25" fill="#FFFFFF"/><text text-anchor="middle" pointer-events="none" font-family="sans-serif" dy="1.5625" font-size="25" fill="#FFFFFF"/><text text-anchor="middle" pointer-events="none" y="0" font-size="10px" fill="#FFFFFF" font-family="sans-serif"> Laurence</text><text text-anchor="middle" pointer-events="none" y="10" font-size="10px" fill="#FFFFFF" font-family="sans-serif"> Fishbur…</text></g><g class="node" transform="translate(101.41536775508553,-162.3104588358456)"><circle class="outline" cx="0" cy="0" r="25" fill="#57C7E3" stroke="#23b3d7" stroke-width="2px"/><text text-anchor="middle" pointer-events="none" font-family="sans-serif" dy="1.5625" font-size="25" fill="#FFFFFF"/><text text-anchor="middle" pointer-events="none" y="5" font-size="10px" fill="#FFFFFF" font-family="sans-serif"> Carrie-A…</text></g><g class="node" transform="translate(75.45207391904611,25.92689486416954)"><circle class="outline" cx="0" cy="0" r="25" fill="#57C7E3" stroke="#23b3d7" stroke-width="2px"/><text text-anchor="middle" pointer-events="none" font-family="sans-serif" dy="1.5625" font-size="25" fill="#FFFFFF"/><text text-anchor="middle" pointer-events="none" font-family="sans-serif" dy="1.5625" font-size="25" fill="#FFFFFF"/><text text-anchor="middle" pointer-events="none" y="0" font-size="10px" fill="#FFFFFF" font-family="sans-serif"> Keanu</text><text text-anchor="middle" pointer-events="none" y="10" font-size="10px" fill="#FFFFFF" font-family="sans-serif"> Reeves</text></g><g class="node" transform="translate(482.2187863319542,-35.3781797746544)"><circle class="outline" cx="0" cy="0" r="25" fill="#F79767" stroke="#f36924" stroke-width="2px"/><text text-anchor="middle" pointer-events="none" font-family="sans-serif" dy="1.5625" font-size="25" fill="#FFFFFF"/><text text-anchor="middle" pointer-events="none" font-family="sans-serif" dy="1.5625" font-size="25" fill="#FFFFFF"/><text text-anchor="middle" pointer-events="none" font-family="sans-serif" dy="1.5625" font-size="25" fill="#FFFFFF"/><text text-anchor="middle" pointer-events="none" y="-5" font-size="10px" fill="#FFFFFF" font-family="sans-serif"> The</text><text text-anchor="middle" pointer-events="none" y="5" font-size="10px" fill="#FFFFFF" font-family="sans-serif"> Matrix</text><text text-anchor="middle" pointer-events="none" y="15" font-size="10px" fill="#FFFFFF" font-family="sans-serif"> Revol…</text></g><g class="node" transform="translate(179.35789783803818,92.14653847098738)"><circle class="outline" cx="0" cy="0" r="25" fill="#F79767" stroke="#f36924" stroke-width="2px"/><text text-anchor="middle" pointer-events="none" font-family="sans-serif" dy="1.5625" font-size="25" fill="#FFFFFF"/><text text-anchor="middle" pointer-events="none" font-family="sans-serif" dy="1.5625" font-size="25" fill="#FFFFFF"/><text text-anchor="middle" pointer-events="none" font-family="sans-serif" dy="1.5625" font-size="25" fill="#FFFFFF"/><text text-anchor="middle" pointer-events="none" y="-5" font-size="10px" fill="#FFFFFF" font-family="sans-serif"> The</text><text text-anchor="middle" pointer-events="none" y="5" font-size="10px" fill="#FFFFFF" font-family="sans-serif"> Devil's</text><text text-anchor="middle" pointer-events="none" y="15" font-size="10px" fill="#FFFFFF" font-family="sans-serif"> Advoc…</text></g><g class="node" transform="translate(129.0209595639792,148.0082037577854)"><circle class="outline" cx="0" cy="0" r="25" fill="#F79767" stroke="#f36924" stroke-width="2px"/><text text-anchor="middle" pointer-events="none" font-family="sans-serif" dy="1.5625" font-size="25" fill="#FFFFFF"/><text text-anchor="middle" pointer-events="none" font-family="sans-serif" dy="1.5625" font-size="25" fill="#FFFFFF"/><text text-anchor="middle" pointer-events="none" y="0" font-size="10px" fill="#FFFFFF" font-family="sans-serif"> The</text><text text-anchor="middle" pointer-events="none" y="10" font-size="10px" fill="#FFFFFF" font-family="sans-serif"> Replac…</text></g><g class="node" transform="translate(61.003724971098606,159.86138311495185)"><circle class="outline" cx="0" cy="0" r="25" fill="#F79767" stroke="#f36924" stroke-width="2px"/><text text-anchor="middle" pointer-events="none" font-family="sans-serif" dy="1.5625" font-size="25" fill="#FFFFFF"/><text text-anchor="middle" pointer-events="none" font-family="sans-serif" dy="1.5625" font-size="25" fill="#FFFFFF"/><text text-anchor="middle" pointer-events="none" y="0" font-size="10px" fill="#FFFFFF" font-family="sans-serif"> Johnny</text><text text-anchor="middle" pointer-events="none" y="10" font-size="10px" fill="#FFFFFF" font-family="sans-serif"> Mnemo…</text></g><g class="node" transform="translate(214.04142297977285,-111.08746399617613)"><circle class="outline" cx="0" cy="0" r="25" fill="#F79767" stroke="#f36924" stroke-width="2px"/><text text-anchor="middle" pointer-events="none" font-family="sans-serif" dy="1.5625" font-size="25" fill="#FFFFFF"/><text text-anchor="middle" pointer-events="none" font-family="sans-serif" dy="1.5625" font-size="25" fill="#FFFFFF"/><text text-anchor="middle" pointer-events="none" y="0" font-size="10px" fill="#FFFFFF" font-family="sans-serif"> Cloud</text><text text-anchor="middle" pointer-events="none" y="10" font-size="10px" fill="#FFFFFF" font-family="sans-serif"> Atlas</text></g><g class="node" transform="translate(327.4528973385277,60.04157255988183)"><circle class="outline" cx="0" cy="0" r="25" fill="#F79767" stroke="#f36924" stroke-width="2px"/><text text-anchor="middle" pointer-events="none" font-family="sans-serif" dy="1.5625" font-size="25" fill="#FFFFFF"/><text text-anchor="middle" pointer-events="none" font-family="sans-serif" dy="1.5625" font-size="25" fill="#FFFFFF"/><text text-anchor="middle" pointer-events="none" y="0" font-size="10px" fill="#FFFFFF" font-family="sans-serif"> V for</text><text text-anchor="middle" pointer-events="none" y="10" font-size="10px" fill="#FFFFFF" font-family="sans-serif"> Vendetta</text></g><g class="node" transform="translate(-1.109397666538332,127.96502985091634)"><circle class="outline" cx="0" cy="0" r="25" fill="#F79767" stroke="#f36924" stroke-width="2px"/><text text-anchor="middle" pointer-events="none" font-family="sans-serif" dy="1.5625" font-size="25" fill="#FFFFFF"/><text text-anchor="middle" pointer-events="none" y="5" font-size="10px" fill="#FFFFFF" font-family="sans-serif"> Somethi…</text></g><g class="node" transform="translate(-88.12927746131581,-142.42714664817962)"><circle class="outline" cx="0" cy="0" r="25" fill="#F79767" stroke="#f36924" stroke-width="2px"/><text text-anchor="middle" pointer-events="none" font-family="sans-serif" dy="1.5625" font-size="25" fill="#FFFFFF"/><text text-anchor="middle" pointer-events="none" font-family="sans-serif" dy="1.5625" font-size="25" fill="#FFFFFF"/><text text-anchor="middle" pointer-events="none" y="0" font-size="10px" fill="#FFFFFF" font-family="sans-serif"> The</text><text text-anchor="middle" pointer-events="none" y="10" font-size="10px" fill="#FFFFFF" font-family="sans-serif"> Matrix</text></g><g class="node" transform="translate(-181.28391168863251,-116.9655321663256)"><circle class="outline" cx="0" cy="0" r="25" fill="#57C7E3" stroke="#23b3d7" stroke-width="2px"/><text text-anchor="middle" pointer-events="none" font-family="sans-serif" dy="1.5625" font-size="25" fill="#FFFFFF"/><text text-anchor="middle" pointer-events="none" font-family="sans-serif" dy="1.5625" font-size="25" fill="#FFFFFF"/><text text-anchor="middle" pointer-events="none" y="0" font-size="10px" fill="#FFFFFF" font-family="sans-serif"> Emil</text><text text-anchor="middle" pointer-events="none" y="10" font-size="10px" fill="#FFFFFF" font-family="sans-serif"> Eifrem</text></g></g></svg>