<svg xmlns="http://www.w3.org/2000/svg" width="644.7623901367188" height="631.1937866210938" viewBox="-204.73065185546875 -183.85203552246094 644.7623901367188 631.1937866210938"><title>Neo4j Graph Visualization</title><desc>Created using Neo4j (http://www.neo4j.com/)</desc><g class="layer relationships"><g class="relationship" transform="translate(133.47508294572236 275.6381747621128) rotate(387.01066047159213)"><path class="outline" fill="#A5ABB6" stroke="none" d="M 25 0.5 L 27.1721039431579 0.5 L 27.1721039431579 -0.5 L 25 -0.5 Z M 72.73460394315791 0.5 L 74.9067078863158 0.5 L 74.9067078863158 3.5 L 81.9067078863158 0 L 74.9067078863158 -3.5 L 74.9067078863158 -0.5 L 72.73460394315791 -0.5 Z"/><text text-anchor="middle" pointer-events="none" font-size="8px" fill="#000000" x="49.9533539431579" y="3" font-family="sans-serif">ACTED_IN</text></g><g class="relationship" transform="translate(178.2503129051796 418.34179591396656) rotate(298.1937816493762)"><path class="outline" fill="#A5ABB6" stroke="none" d="M 25 0.5 L 27.13156189968865 0.5 L 27.13156189968865 -0.5 L 25 -0.5 Z M 72.69406189968865 0.5 L 74.8256237993773 0.5 L 74.8256237993773 3.5 L 81.8256237993773 0 L 74.8256237993773 -3.5 L 74.8256237993773 -0.5 L 72.69406189968865 -0.5 Z"/><text text-anchor="middle" pointer-events="none" font-size="8px" fill="#000000" x="49.91281189968865" y="3" font-family="sans-serif">ACTED_IN</text></g><g class="relationship" transform="translate(334.6376960719015 318.25649102847706) rotate(536.7933389896864)"><path class="outline" fill="#A5ABB6" stroke="none" d="M 25 0.5 L 26.760334384570115 0.5 L 26.760334384570115 -0.5 L 25 -0.5 Z M 72.32283438457011 0.5 L 74.08316876914023 0.5 L 74.08316876914023 3.5 L 81.08316876914023 0 L 74.08316876914023 -3.5 L 74.08316876914023 -0.5 L 72.32283438457011 -0.5 Z"/><text text-anchor="middle" pointer-events="none" font-size="8px" fill="#000000" x="49.541584384570115" y="3" transform="rotate(180 49.541584384570115 0)" font-family="sans-serif">ACTED_IN</text></g><g class="relationship" transform="translate(379.2450680622583 99.5668600457348) rotate(233.79782683435963)"><path class="outline" fill="#A5ABB6" stroke="none" d="M 25 0.5 L 29.206882178556427 0.5 L 29.206882178556427 -0.5 L 25 -0.5 Z M 74.76938217855643 0.5 L 78.97626435711285 0.5 L 78.97626435711285 3.5 L 85.97626435711285 0 L 78.97626435711285 -3.5 L 78.97626435711285 -0.5 L 74.76938217855643 -0.5 Z"/><text text-anchor="middle" pointer-events="none" font-size="8px" fill="#000000" x="51.98813217855643" y="3" transform="rotate(180 51.98813217855643 0)" font-family="sans-serif">ACTED_IN</text></g><g class="relationship" transform="translate(411.0317348844028 -37.09938944204839) rotate(514.1701611613507)"><path class="outline" fill="#A5ABB6" stroke="none" d="M 25 0.5 L 27.787264961400076 0.5 L 27.787264961400076 -0.5 L 25 -0.5 Z M 73.34976496140007 0.5 L 76.13702992280015 0.5 L 76.13702992280015 3.5 L 83.13702992280015 0 L 76.13702992280015 -3.5 L 76.13702992280015 -0.5 L 73.34976496140007 -0.5 Z"/><text text-anchor="middle" pointer-events="none" font-size="8px" fill="#000000" x="50.568514961400076" y="3" transform="rotate(180 50.568514961400076 0)" font-family="sans-serif">ACTED_IN</text></g><g class="relationship" transform="translate(234.9823872731228 84.83927678779295) rotate(316.4523148605285)"><path class="outline" fill="#A5ABB6" stroke="none" d="M 25 0.5 L 28.020585060739904 0.5 L 28.020585060739904 -0.5 L 25 -0.5 Z M 73.5830850607399 0.5 L 76.60367012147981 0.5 L 76.60367012147981 3.5 L 83.60367012147981 0 L 76.60367012147981 -3.5 L 76.60367012147981 -0.5 L 73.5830850607399 -0.5 Z"/><text text-anchor="middle" pointer-events="none" font-size="8px" fill="#000000" x="50.801835060739904" y="3" font-family="sans-serif">ACTED_IN</text></g><g class="relationship" transform="translate(291.8134197729451 -98.7290942758832) rotate(438.62116337209363)"><path class="outline" fill="#A5ABB6" stroke="none" d="M 25 0.5 L 29.181417448253676 0.5 L 29.181417448253676 -0.5 L 25 -0.5 Z M 74.74391744825368 0.5 L 78.92533489650735 0.5 L 78.92533489650735 3.5 L 85.92533489650735 0 L 78.92533489650735 -3.5 L 78.92533489650735 -0.5 L 74.74391744825368 -0.5 Z"/><text text-anchor="middle" pointer-events="none" font-size="8px" fill="#000000" x="51.962667448253676" y="3" font-family="sans-serif">ACTED_IN</text></g><g class="relationship" transform="translate(-3.0857318348721114 -94.60576751028673) rotate(329.94577164263404)"><path class="outline" fill="#A5ABB6" stroke="none" d="M 25 0.5 L 26.448561665780375 0.5 L 26.448561665780375 -0.5 L 25 -0.5 Z M 61.784499165780375 0.5 L 63.23306083156075 0.5 L 63.23306083156075 3.5 L 70.23306083156075 0 L 63.23306083156075 -3.5 L 63.23306083156075 -0.5 L 61.784499165780375 -0.5 Z"/><text text-anchor="middle" pointer-events="none" font-size="8px" fill="#000000" x="44.116530415780375" y="3" font-family="sans-serif">ACTE…</text></g><g class="relationship" transform="translate(-3.0857318348721114 -94.60576751028673) rotate(535.096074083431)"><path class="outline" fill="#A5ABB6" stroke="none" d="M 25 0.5 L 27.148262952319868 0.5 L 27.148262952319868 -0.5 L 25 -0.5 Z M 68.26154420231987 0.5 L 70.40980715463974 0.5 L 70.40980715463974 3.5 L 77.40980715463974 0 L 70.40980715463974 -3.5 L 70.40980715463974 -0.5 L 68.26154420231987 -0.5 Z"/><text text-anchor="middle" pointer-events="none" font-size="8px" fill="#000000" x="47.70490357731987" y="3" transform="rotate(180 47.70490357731987 0)" font-family="sans-serif">ACTED…</text></g><g class="relationship" transform="translate(-3.0857318348721114 -94.60576751028673) rotate(496.00516201742766)"><path class="outline" fill="#A5ABB6" stroke="none" d="M 25 0.5 L 26.473446958644068 0.5 L 26.473446958644068 -0.5 L 25 -0.5 Z M 72.03594695864408 0.5 L 73.50939391728814 0.5 L 73.50939391728814 3.5 L 80.50939391728814 0 L 73.50939391728814 -3.5 L 73.50939391728814 -0.5 L 72.03594695864408 -0.5 Z"/><text text-anchor="middle" pointer-events="none" font-size="8px" fill="#000000" x="49.25469695864407" y="3" transform="rotate(180 49.25469695864407 0)" font-family="sans-serif">ACTED_IN</text></g><g class="relationship" transform="translate(-40.041164410281624 -154.85203021600415) rotate(366.0018369986358)"><path class="outline" fill="#A5ABB6" stroke="none" d="M 25 0.5 L 33.74004325808782 0.5 L 33.74004325808782 -0.5 L 25 -0.5 Z M 79.30254325808782 0.5 L 88.04258651617565 0.5 L 88.04258651617565 3.5 L 95.04258651617565 0 L 88.04258651617565 -3.5 L 88.04258651617565 -0.5 L 79.30254325808782 -0.5 Z"/><text text-anchor="middle" pointer-events="none" font-size="8px" fill="#000000" x="56.52129325808782" y="3" font-family="sans-serif">ACTED_IN</text></g><g class="relationship" transform="translate(-40.041164410281624 -154.85203021600415) rotate(493.3248156306006)"><path class="outline" fill="#A5ABB6" stroke="none" d="M 25 0.5 L 26.256838290140152 0.5 L 26.256838290140152 -0.5 L 25 -0.5 Z M 61.59277579014015 0.5 L 62.849614080280304 0.5 L 62.849614080280304 3.5 L 69.8496140802803 0 L 62.849614080280304 -3.5 L 62.849614080280304 -0.5 L 61.59277579014015 -0.5 Z"/><text text-anchor="middle" pointer-events="none" font-size="8px" fill="#000000" x="43.92480704014015" y="3" transform="rotate(180 43.92480704014015 0)" font-family="sans-serif">ACTE…</text></g><g class="relationship" transform="translate(-40.041164410281624 -154.85203021600415) rotate(466.2607284099538)"><path class="outline" fill="#A5ABB6" stroke="none" d="M 25 0.5 L 43.267064666631185 0.5 L 43.267064666631185 -0.5 L 25 -0.5 Z M 88.82956466663119 0.5 L 107.09662933326237 0.5 L 107.09662933326237 3.5 L 114.09662933326237 0 L 107.09662933326237 -3.5 L 107.09662933326237 -0.5 L 88.82956466663119 -0.5 Z"/><text text-anchor="middle" pointer-events="none" font-size="8px" fill="#000000" x="66.04831466663119" y="3" transform="rotate(180 66.04831466663119 0)" font-family="sans-serif">ACTED_IN</text></g><g class="relationship" transform="translate(21.08654473207319 -32.365932107966444) rotate(533.7012340031047)"><path class="outline" fill="#A5ABB6" stroke="none" d="M 25 0.5 L 26.285250273488415 0.5 L 26.285250273488415 -0.5 L 25 -0.5 Z M 67.39853152348842 0.5 L 68.68378179697683 0.5 L 68.68378179697683 3.5 L 75.68378179697683 0 L 68.68378179697683 -3.5 L 68.68378179697683 -0.5 L 67.39853152348842 -0.5 Z"/><text text-anchor="middle" pointer-events="none" font-size="8px" fill="#000000" x="46.841890898488415" y="3" transform="rotate(180 46.841890898488415 0)" font-family="sans-serif">ACTED…</text></g><g class="relationship" transform="translate(21.08654473207319 -32.365932107966444) rotate(297.9201861567921)"><path class="outline" fill="#A5ABB6" stroke="none" d="M 25 0.5 L 35.926940459708234 0.5 L 35.926940459708234 -0.5 L 25 -0.5 Z M 81.48944045970823 0.5 L 92.41638091941647 0.5 L 92.41638091941647 3.5 L 99.41638091941647 0 L 92.41638091941647 -3.5 L 92.41638091941647 -0.5 L 81.48944045970823 -0.5 Z"/><text text-anchor="middle" pointer-events="none" font-size="8px" fill="#000000" x="58.708190459708234" y="3" font-family="sans-serif">ACTED_IN</text></g><g class="relationship" transform="translate(21.08654473207319 -32.365932107966444) rotate(202.96673016800253)"><path class="outline" fill="#A5ABB6" stroke="none" d="M 25 0.5 L 42.25512306919663 0.5 L 42.25512306919663 -0.5 L 25 -0.5 Z M 87.81762306919663 0.5 L 105.07274613839326 0.5 L 105.07274613839326 3.5 L 112.07274613839326 0 L 105.07274613839326 -3.5 L 105.07274613839326 -0.5 L 87.81762306919663 -0.5 Z"/><text text-anchor="middle" pointer-events="none" font-size="8px" fill="#000000" x="65.03637306919663" y="3" transform="rotate(180 65.03637306919663 0)" font-family="sans-serif">ACTED_IN</text></g><g class="relationship" transform="translate(-159.45186587337398 58.70975489277439) rotate(315.1545982377556)"><path class="outline" fill="#A5ABB6" stroke="none" d="M 25 0.5 L 30.461377198623367 0.5 L 30.461377198623367 -0.5 L 25 -0.5 Z M 76.02387719862337 0.5 L 81.48525439724673 0.5 L 81.48525439724673 3.5 L 88.48525439724673 0 L 81.48525439724673 -3.5 L 81.48525439724673 -0.5 L 76.02387719862337 -0.5 Z"/><text text-anchor="middle" pointer-events="none" font-size="8px" fill="#000000" x="53.24262719862337" y="3" font-family="sans-serif">ACTED_IN</text></g><g class="relationship" transform="translate(-175.73065769954601 252.00363652160158) rotate(375.0596191445396)"><path class="outline" fill="#A5ABB6" stroke="none" d="M 25 0.5 L 26.515882213283646 0.5 L 26.515882213283646 -0.5 L 25 -0.5 Z M 72.07838221328365 0.5 L 73.59426442656729 0.5 L 73.59426442656729 3.5 L 80.59426442656729 0 L 73.59426442656729 -3.5 L 73.59426442656729 -0.5 L 72.07838221328365 -0.5 Z"/><text text-anchor="middle" pointer-events="none" font-size="8px" fill="#000000" x="49.297132213283646" y="3" font-family="sans-serif">ACTED_IN</text></g><g class="relationship" transform="translate(-55.569672123717694 383.6567212571099) rotate(260.09762826385935)"><path class="outline" fill="#A5ABB6" stroke="none" d="M 25 0.5 L 26.61537319574314 0.5 L 26.61537319574314 -0.5 L 25 -0.5 Z M 72.17787319574313 0.5 L 73.79324639148628 0.5 L 73.79324639148628 3.5 L 80.79324639148628 0 L 73.79324639148628 -3.5 L 73.79324639148628 -0.5 L 72.17787319574313 -0.5 Z"/><text text-anchor="middle" pointer-events="none" font-size="8px" fill="#000000" x="49.39662319574314" y="3" transform="rotate(180 49.39662319574314 0)" font-family="sans-serif">ACTED_IN</text></g></g><g class="layer nodes"><g class="node" transform="translate(133.47508294572236,275.6381747621128)"><circle class="outline" cx="0" cy="0" r="25" fill="#57C7E3" stroke="#23b3d7" stroke-width="2px"/><text text-anchor="middle" pointer-events="none" font-family="sans-serif" dy="1.5625" font-size="25" fill="#FFFFFF"/><text text-anchor="middle" pointer-events="none" font-family="sans-serif" dy="1.5625" font-size="25" fill="#FFFFFF"/><text text-anchor="middle" pointer-events="none" y="0" font-size="10px" fill="#FFFFFF" font-family="sans-serif"> Jim</text><text text-anchor="middle" pointer-events="none" y="10" font-size="10px" fill="#FFFFFF" font-family="sans-serif"> Broadb…</text></g><g class="node" transform="translate(228.72062513401738,324.1905267581569)"><circle class="outline" cx="0" cy="0" r="25" fill="#F79767" stroke="#f36924" stroke-width="2px"/><text text-anchor="middle" pointer-events="none" font-family="sans-serif" dy="1.5625" font-size="25" fill="#FFFFFF"/><text text-anchor="middle" pointer-events="none" font-family="sans-serif" dy="1.5625" font-size="25" fill="#FFFFFF"/><text text-anchor="middle" pointer-events="none" y="0" font-size="10px" fill="#FFFFFF" font-family="sans-serif"> Cloud</text><text text-anchor="middle" pointer-events="none" y="10" font-size="10px" fill="#FFFFFF" font-family="sans-serif"> Atlas</text></g><g class="node" transform="translate(178.2503129051796,418.34179591396656)"><circle class="outline" cx="0" cy="0" r="25" fill="#57C7E3" stroke="#23b3d7" stroke-width="2px"/><text text-anchor="middle" pointer-events="none" font-family="sans-serif" dy="1.5625" font-size="25" fill="#FFFFFF"/><text text-anchor="middle" pointer-events="none" font-family="sans-serif" dy="1.5625" font-size="25" fill="#FFFFFF"/><text text-anchor="middle" pointer-events="none" y="0" font-size="10px" fill="#FFFFFF" font-family="sans-serif"> Halle</text><text text-anchor="middle" pointer-events="none" y="10" font-size="10px" fill="#FFFFFF" font-family="sans-serif"> Berry</text></g><g class="node" transform="translate(334.6376960719015,318.25649102847706)"><circle class="outline" cx="0" cy="0" r="25" fill="#57C7E3" stroke="#23b3d7" stroke-width="2px"/><text text-anchor="middle" pointer-events="none" font-family="sans-serif" dy="1.5625" font-size="25" fill="#FFFFFF"/><text text-anchor="middle" pointer-events="none" font-family="sans-serif" dy="1.5625" font-size="25" fill="#FFFFFF"/><text text-anchor="middle" pointer-events="none" y="0" font-size="10px" fill="#FFFFFF" font-family="sans-serif"> Tom</text><text text-anchor="middle" pointer-events="none" y="10" font-size="10px" fill="#FFFFFF" font-family="sans-serif"> Hanks</text></g><g class="node" transform="translate(379.2450680622583,99.5668600457348)"><circle class="outline" cx="0" cy="0" r="25" fill="#57C7E3" stroke="#23b3d7" stroke-width="2px"/><text text-anchor="middle" pointer-events="none" font-family="sans-serif" dy="1.5625" font-size="25" fill="#FFFFFF"/><text text-anchor="middle" pointer-events="none" y="5" font-size="10px" fill="#FFFFFF" font-family="sans-serif"> Ben Miles</text></g><g class="node" transform="translate(313.6984607456935,10.015905165578173)"><circle class="outline" cx="0" cy="0" r="25" fill="#F79767" stroke="#f36924" stroke-width="2px"/><text text-anchor="middle" pointer-events="none" font-family="sans-serif" dy="1.5625" font-size="25" fill="#FFFFFF"/><text text-anchor="middle" pointer-events="none" font-family="sans-serif" dy="1.5625" font-size="25" fill="#FFFFFF"/><text text-anchor="middle" pointer-events="none" y="0" font-size="10px" fill="#FFFFFF" font-family="sans-serif"> V for</text><text text-anchor="middle" pointer-events="none" y="10" font-size="10px" fill="#FFFFFF" font-family="sans-serif"> Vendetta</text></g><g class="node" transform="translate(411.0317348844028,-37.09938944204839)"><circle class="outline" cx="0" cy="0" r="25" fill="#57C7E3" stroke="#23b3d7" stroke-width="2px"/><text text-anchor="middle" pointer-events="none" font-family="sans-serif" dy="1.5625" font-size="25" fill="#FFFFFF"/><text text-anchor="middle" pointer-events="none" y="5" font-size="10px" fill="#FFFFFF" font-family="sans-serif"> John Hurt</text></g><g class="node" transform="translate(234.9823872731228,84.83927678779295)"><circle class="outline" cx="0" cy="0" r="25" fill="#57C7E3" stroke="#23b3d7" stroke-width="2px"/><text text-anchor="middle" pointer-events="none" font-family="sans-serif" dy="1.5625" font-size="25" fill="#FFFFFF"/><text text-anchor="middle" pointer-events="none" font-family="sans-serif" dy="1.5625" font-size="25" fill="#FFFFFF"/><text text-anchor="middle" pointer-events="none" y="0" font-size="10px" fill="#FFFFFF" font-family="sans-serif"> Stephen</text><text text-anchor="middle" pointer-events="none" y="10" font-size="10px" fill="#FFFFFF" font-family="sans-serif"> Rea</text></g><g class="node" transform="translate(291.8134197729451,-98.7290942758832)"><circle class="outline" cx="0" cy="0" r="25" fill="#57C7E3" stroke="#23b3d7" stroke-width="2px"/><text text-anchor="middle" pointer-events="none" font-family="sans-serif" dy="1.5625" font-size="25" fill="#FFFFFF"/><text text-anchor="middle" pointer-events="none" font-family="sans-serif" dy="1.5625" font-size="25" fill="#FFFFFF"/><text text-anchor="middle" pointer-events="none" y="0" font-size="10px" fill="#FFFFFF" font-family="sans-serif"> Natalie</text><text text-anchor="middle" pointer-events="none" y="10" font-size="10px" fill="#FFFFFF" font-family="sans-serif"> Portman</text></g><g class="node" transform="translate(-3.0857318348721114,-94.60576751028673)"><circle class="outline" cx="0" cy="0" r="25" fill="#57C7E3" stroke="#23b3d7" stroke-width="2px"/><text text-anchor="middle" pointer-events="none" font-family="sans-serif" dy="1.5625" font-size="25" fill="#FFFFFF"/><text text-anchor="middle" pointer-events="none" font-family="sans-serif" dy="1.5625" font-size="25" fill="#FFFFFF"/><text text-anchor="middle" pointer-events="none" y="0" font-size="10px" fill="#FFFFFF" font-family="sans-serif"> Laurence</text><text text-anchor="middle" pointer-events="none" y="10" font-size="10px" fill="#FFFFFF" font-family="sans-serif"> Fishbur…</text></g><g class="node" transform="translate(79.34341388970334,-142.30033544484775)"><circle class="outline" cx="0" cy="0" r="25" fill="#F79767" stroke="#f36924" stroke-width="2px"/><text text-anchor="middle" pointer-events="none" font-family="sans-serif" dy="1.5625" font-size="25" fill="#FFFFFF"/><text text-anchor="middle" pointer-events="none" font-family="sans-serif" dy="1.5625" font-size="25" fill="#FFFFFF"/><text text-anchor="middle" pointer-events="none" font-family="sans-serif" dy="1.5625" font-size="25" fill="#FFFFFF"/><text text-anchor="middle" pointer-events="none" y="-5" font-size="10px" fill="#FFFFFF" font-family="sans-serif"> The</text><text text-anchor="middle" pointer-events="none" y="5" font-size="10px" fill="#FFFFFF" font-family="sans-serif"> Matrix</text><text text-anchor="middle" pointer-events="none" y="15" font-size="10px" fill="#FFFFFF" font-family="sans-serif"> Revol…</text></g><g class="node" transform="translate(-40.041164410281624,-154.85203021600415)"><circle class="outline" cx="0" cy="0" r="25" fill="#57C7E3" stroke="#23b3d7" stroke-width="2px"/><text text-anchor="middle" pointer-events="none" font-family="sans-serif" dy="1.5625" font-size="25" fill="#FFFFFF"/><text text-anchor="middle" pointer-events="none" y="5" font-size="10px" fill="#FFFFFF" font-family="sans-serif"> Carrie-A…</text></g><g class="node" transform="translate(21.08654473207319,-32.365932107966444)"><circle class="outline" cx="0" cy="0" r="25" fill="#57C7E3" stroke="#23b3d7" stroke-width="2px"/><text text-anchor="middle" pointer-events="none" font-family="sans-serif" dy="1.5625" font-size="25" fill="#FFFFFF"/><text text-anchor="middle" pointer-events="none" font-family="sans-serif" dy="1.5625" font-size="25" fill="#FFFFFF"/><text text-anchor="middle" pointer-events="none" y="0" font-size="10px" fill="#FFFFFF" font-family="sans-serif"> Keanu</text><text text-anchor="middle" pointer-events="none" y="10" font-size="10px" fill="#FFFFFF" font-family="sans-serif"> Reeves</text></g><g class="node" transform="translate(-105.1206618553985,-85.85124541271995)"><circle class="outline" cx="0" cy="0" r="25" fill="#F79767" stroke="#f36924" stroke-width="2px"/><text text-anchor="middle" pointer-events="none" font-family="sans-serif" dy="1.5625" font-size="25" fill="#FFFFFF"/><text text-anchor="middle" pointer-events="none" font-family="sans-serif" dy="1.5625" font-size="25" fill="#FFFFFF"/><text text-anchor="middle" pointer-events="none" font-family="sans-serif" dy="1.5625" font-size="25" fill="#FFFFFF"/><text text-anchor="middle" pointer-events="none" y="-5" font-size="10px" fill="#FFFFFF" font-family="sans-serif"> The</text><text text-anchor="middle" pointer-events="none" y="5" font-size="10px" fill="#FFFFFF" font-family="sans-serif"> Matrix</text><text text-anchor="middle" pointer-events="none" y="15" font-size="10px" fill="#FFFFFF" font-family="sans-serif"> Reloa…</text></g><g class="node" transform="translate(-78.98944115388909,-21.31962205012725)"><circle class="outline" cx="0" cy="0" r="25" fill="#F79767" stroke="#f36924" stroke-width="2px"/><text text-anchor="middle" pointer-events="none" font-family="sans-serif" dy="1.5625" font-size="25" fill="#FFFFFF"/><text text-anchor="middle" pointer-events="none" font-family="sans-serif" dy="1.5625" font-size="25" fill="#FFFFFF"/><text text-anchor="middle" pointer-events="none" y="0" font-size="10px" fill="#FFFFFF" font-family="sans-serif"> The</text><text text-anchor="middle" pointer-events="none" y="10" font-size="10px" fill="#FFFFFF" font-family="sans-serif"> Matrix</text></g><g class="node" transform="translate(-159.45186587337398,58.70975489277439)"><circle class="outline" cx="0" cy="0" r="25" fill="#57C7E3" stroke="#23b3d7" stroke-width="2px"/><text text-anchor="middle" pointer-events="none" font-family="sans-serif" dy="1.5625" font-size="25" fill="#FFFFFF"/><text text-anchor="middle" pointer-events="none" font-family="sans-serif" dy="1.5625" font-size="25" fill="#FFFFFF"/><text text-anchor="middle" pointer-events="none" y="0" font-size="10px" fill="#FFFFFF" font-family="sans-serif"> Emil</text><text text-anchor="middle" pointer-events="none" y="10" font-size="10px" fill="#FFFFFF" font-family="sans-serif"> Eifrem</text></g><g class="node" transform="translate(-175.73065769954601,252.00363652160158)"><circle class="outline" cx="0" cy="0" r="25" fill="#57C7E3" stroke="#23b3d7" stroke-width="2px"/><text text-anchor="middle" pointer-events="none" font-family="sans-serif" dy="1.5625" font-size="25" fill="#FFFFFF"/><text text-anchor="middle" pointer-events="none" font-family="sans-serif" dy="1.5625" font-size="25" fill="#FFFFFF"/><text text-anchor="middle" pointer-events="none" font-family="sans-serif" dy="1.5625" font-size="25" fill="#FFFFFF"/><text text-anchor="middle" pointer-events="none" y="-5" font-size="10px" fill="#FFFFFF" font-family="sans-serif"> Samuel</text><text text-anchor="middle" pointer-events="none" y="5" font-size="10px" fill="#FFFFFF" font-family="sans-serif"> L.</text><text text-anchor="middle" pointer-events="none" y="15" font-size="10px" fill="#FFFFFF" font-family="sans-serif"> Jackson</text></g><g class="node" transform="translate(-73.76292383519196,279.4395606058397)"><circle class="outline" cx="0" cy="0" r="25" fill="#F79767" stroke="#f36924" stroke-width="2px"/><text text-anchor="middle" pointer-events="none" font-family="sans-serif" dy="1.5625" font-size="25" fill="#FFFFFF"/><text text-anchor="middle" pointer-events="none" font-family="sans-serif" dy="1.5625" font-size="25" fill="#FFFFFF"/><text text-anchor="middle" pointer-events="none" font-family="sans-serif" dy="1.5625" font-size="25" fill="#FFFFFF"/><text text-anchor="middle" pointer-events="none" y="-5" font-size="10px" fill="#FFFFFF" font-family="sans-serif"> Captain</text><text text-anchor="middle" pointer-events="none" y="5" font-size="10px" fill="#FFFFFF" font-family="sans-serif"> America:</text><text text-anchor="middle" pointer-events="none" y="15" font-size="10px" fill="#FFFFFF" font-family="sans-serif"> The Fi…</text></g><g class="node" transform="translate(-55.569672123717694,383.6567212571099)"><circle class="outline" cx="0" cy="0" r="25" fill="#57C7E3" stroke="#23b3d7" stroke-width="2px"/><text text-anchor="middle" pointer-events="none" font-family="sans-serif" dy="1.5625" font-size="25" fill="#FFFFFF"/><text text-anchor="middle" pointer-events="none" font-family="sans-serif" dy="1.5625" font-size="25" fill="#FFFFFF"/><text text-anchor="middle" pointer-events="none" y="0" font-size="10px" fill="#FFFFFF" font-family="sans-serif"> Chris</text><text text-anchor="middle" pointer-events="none" y="10" font-size="10px" fill="#FFFFFF" font-family="sans-serif"> Evans</text></g></g></svg>