<svg xmlns="http://www.w3.org/2000/svg" width="285.76019287109375" height="265.7551574707031" viewBox="-32.02222442626953 -39.67113494873047 285.76019287109375 265.7551574707031"><title>Neo4j Graph Visualization</title><desc>Created using Neo4j (http://www.neo4j.com/)</desc><g class="layer relationships"><g class="relationship" transform="translate(161.09037832901532 197.08403105474545) rotate(244.37709209077008)"><path class="outline" fill="#A5ABB6" stroke="none" d="M 25 0.5 L 36.28452274055582 0.5 L 36.28452274055582 -0.5 L 25 -0.5 Z M 72.05796024055581 0.5 L 83.34248298111164 0.5 L 83.34248298111164 3.5 L 90.34248298111164 0 L 83.34248298111164 -3.5 L 83.34248298111164 -0.5 L 72.05796024055581 -0.5 Z"/><text text-anchor="middle" pointer-events="none" font-size="8px" fill="#000000" x="54.17124149055582" y="3" transform="rotate(180 54.17124149055582 0)" font-family="sans-serif">WROTE</text></g><g class="relationship" transform="translate(224.7379738915446 93.0393962507617) rotate(539.9773059890651)"><path class="outline" fill="#A5ABB6" stroke="none" d="M 25 0.5 L 35.37679753313061 0.5 L 35.37679753313061 -0.5 L 25 -0.5 Z M 71.15023503313061 0.5 L 81.52703256626123 0.5 L 81.52703256626123 3.5 L 88.52703256626123 0 L 81.52703256626123 -3.5 L 81.52703256626123 -0.5 L 71.15023503313061 -0.5 Z"/><text text-anchor="middle" pointer-events="none" font-size="8px" fill="#000000" x="53.26351628313061" y="3" transform="rotate(180 53.26351628313061 0)" font-family="sans-serif">WROTE</text></g><g class="relationship" transform="translate(157.3458421763454 -10.67113435571629) rotate(473.97232772357387)"><path class="outline" fill="#A5ABB6" stroke="none" d="M 25 0.5 L 30.493813648675257 0.5 L 30.493813648675257 -0.5 L 25 -0.5 Z M 76.05631364867526 0.5 L 81.55012729735051 0.5 L 81.55012729735051 3.5 L 88.55012729735051 0 L 81.55012729735051 -3.5 L 81.55012729735051 -0.5 L 76.05631364867526 -0.5 Z"/><text text-anchor="middle" pointer-events="none" font-size="8px" fill="#000000" x="53.27506364867526" y="3" transform="rotate(180 53.27506364867526 0)" font-family="sans-serif">ACTED_IN</text></g><g class="relationship" transform="translate(36.640944324305785 5.029736078602449) rotate(409.7400471184815)"><path class="outline" fill="#A5ABB6" stroke="none" d="M 25 0.5 L 31.41256040817369 0.5 L 31.41256040817369 -0.5 L 25 -0.5 Z M 76.97506040817369 0.5 L 83.38762081634738 0.5 L 83.38762081634738 3.5 L 90.38762081634738 0 L 83.38762081634738 -3.5 L 83.38762081634738 -0.5 L 76.97506040817369 -0.5 Z"/><text text-anchor="middle" pointer-events="none" font-size="8px" fill="#000000" x="54.19381040817369" y="3" font-family="sans-serif">ACTED_IN</text></g><g class="relationship" transform="translate(-3.022226264275461 105.3217167004855) rotate(353.8854459579404)"><path class="outline" fill="#A5ABB6" stroke="none" d="M 25 0.5 L 31.16213832012121 0.5 L 31.16213832012121 -0.5 L 25 -0.5 Z M 76.72463832012122 0.5 L 82.88677664024242 0.5 L 82.88677664024242 3.5 L 89.88677664024242 0 L 82.88677664024242 -3.5 L 82.88677664024242 -0.5 L 76.72463832012122 -0.5 Z"/><text text-anchor="middle" pointer-events="none" font-size="8px" fill="#000000" x="53.94338832012121" y="3" font-family="sans-serif">ACTED_IN</text></g><g class="relationship" transform="translate(53.29361655082205 192.22892037210747) rotate(300.2922156796431)"><path class="outline" fill="#A5ABB6" stroke="none" d="M 25 0.5 L 30.465620410878493 0.5 L 30.465620410878493 -0.5 L 25 -0.5 Z M 77.3562454108785 0.5 L 82.82186582175699 0.5 L 82.82186582175699 3.5 L 89.82186582175699 0 L 82.82186582175699 -3.5 L 82.82186582175699 -0.5 L 77.3562454108785 -0.5 Z"/><text text-anchor="middle" pointer-events="none" font-size="8px" fill="#000000" x="53.91093291087849" y="3" font-family="sans-serif">DIRECTED</text></g></g><g class="layer nodes"><g class="node" transform="translate(111.21095023054207,93.08436262826793)"><circle class="outline" cx="0" cy="0" r="25" fill="#F79767" stroke="#f36924" stroke-width="2px"/><text text-anchor="middle" pointer-events="none" font-family="sans-serif" dy="1.5625" font-size="25" fill="#FFFFFF"/><text text-anchor="middle" pointer-events="none" font-family="sans-serif" dy="1.5625" font-size="25" fill="#FFFFFF"/><text text-anchor="middle" pointer-events="none" font-family="sans-serif" dy="1.5625" font-size="25" fill="#FFFFFF"/><text text-anchor="middle" pointer-events="none" y="-5" font-size="10px" fill="#FFFFFF" font-family="sans-serif"> Captain</text><text text-anchor="middle" pointer-events="none" y="5" font-size="10px" fill="#FFFFFF" font-family="sans-serif"> America:</text><text text-anchor="middle" pointer-events="none" y="15" font-size="10px" fill="#FFFFFF" font-family="sans-serif"> The Fi…</text></g><g class="node" transform="translate(161.09037832901532,197.08403105474545)"><circle class="outline" cx="0" cy="0" r="25" fill="#57C7E3" stroke="#23b3d7" stroke-width="2px"/><text text-anchor="middle" pointer-events="none" font-family="sans-serif" dy="1.5625" font-size="25" fill="#FFFFFF"/><text text-anchor="middle" pointer-events="none" font-family="sans-serif" dy="1.5625" font-size="25" fill="#FFFFFF"/><text text-anchor="middle" pointer-events="none" y="0" font-size="10px" fill="#FFFFFF" font-family="sans-serif"> Stephen</text><text text-anchor="middle" pointer-events="none" y="10" font-size="10px" fill="#FFFFFF" font-family="sans-serif"> McFeely</text></g><g class="node" transform="translate(224.7379738915446,93.0393962507617)"><circle class="outline" cx="0" cy="0" r="25" fill="#57C7E3" stroke="#23b3d7" stroke-width="2px"/><text text-anchor="middle" pointer-events="none" font-family="sans-serif" dy="1.5625" font-size="25" fill="#FFFFFF"/><text text-anchor="middle" pointer-events="none" y="5" font-size="10px" fill="#FFFFFF" font-family="sans-serif"> Christop…</text></g><g class="node" transform="translate(157.3458421763454,-10.67113435571629)"><circle class="outline" cx="0" cy="0" r="25" fill="#57C7E3" stroke="#23b3d7" stroke-width="2px"/><text text-anchor="middle" pointer-events="none" font-family="sans-serif" dy="1.5625" font-size="25" fill="#FFFFFF"/><text text-anchor="middle" pointer-events="none" font-family="sans-serif" dy="1.5625" font-size="25" fill="#FFFFFF"/><text text-anchor="middle" pointer-events="none" font-family="sans-serif" dy="1.5625" font-size="25" fill="#FFFFFF"/><text text-anchor="middle" pointer-events="none" y="-5" font-size="10px" fill="#FFFFFF" font-family="sans-serif"> Samuel</text><text text-anchor="middle" pointer-events="none" y="5" font-size="10px" fill="#FFFFFF" font-family="sans-serif"> L.</text><text text-anchor="middle" pointer-events="none" y="15" font-size="10px" fill="#FFFFFF" font-family="sans-serif"> Jackson</text></g><g class="node" transform="translate(36.640944324305785,5.029736078602449)"><circle class="outline" cx="0" cy="0" r="25" fill="#57C7E3" stroke="#23b3d7" stroke-width="2px"/><text text-anchor="middle" pointer-events="none" font-family="sans-serif" dy="1.5625" font-size="25" fill="#FFFFFF"/><text text-anchor="middle" pointer-events="none" font-family="sans-serif" dy="1.5625" font-size="25" fill="#FFFFFF"/><text text-anchor="middle" pointer-events="none" y="0" font-size="10px" fill="#FFFFFF" font-family="sans-serif"> Hugo</text><text text-anchor="middle" pointer-events="none" y="10" font-size="10px" fill="#FFFFFF" font-family="sans-serif"> Weaving</text></g><g class="node" transform="translate(-3.022226264275461,105.3217167004855)"><circle class="outline" cx="0" cy="0" r="25" fill="#57C7E3" stroke="#23b3d7" stroke-width="2px"/><text text-anchor="middle" pointer-events="none" font-family="sans-serif" dy="1.5625" font-size="25" fill="#FFFFFF"/><text text-anchor="middle" pointer-events="none" font-family="sans-serif" dy="1.5625" font-size="25" fill="#FFFFFF"/><text text-anchor="middle" pointer-events="none" y="0" font-size="10px" fill="#FFFFFF" font-family="sans-serif"> Chris</text><text text-anchor="middle" pointer-events="none" y="10" font-size="10px" fill="#FFFFFF" font-family="sans-serif"> Evans</text></g><g class="node" transform="translate(53.29361655082205,192.22892037210747)"><circle class="outline" cx="0" cy="0" r="25" fill="#57C7E3" stroke="#23b3d7" stroke-width="2px"/><text text-anchor="middle" pointer-events="none" font-family="sans-serif" dy="1.5625" font-size="25" fill="#FFFFFF"/><text text-anchor="middle" pointer-events="none" font-family="sans-serif" dy="1.5625" font-size="25" fill="#FFFFFF"/><text text-anchor="middle" pointer-events="none" y="0" font-size="10px" fill="#FFFFFF" font-family="sans-serif"> Joe</text><text text-anchor="middle" pointer-events="none" y="10" font-size="10px" fill="#FFFFFF" font-family="sans-serif"> Johnston</text></g></g></svg>