<svg xmlns="http://www.w3.org/2000/svg" width="379.22552490234375" height="370.7720947265625" viewBox="-92.27001190185547 -83.06246948242188 379.22552490234375 370.7720947265625"><title>Neo4j Graph Visualization</title><desc>Created using Neo4j (http://www.neo4j.com/)</desc><g class="layer relationships"><g class="relationship" transform="translate(152.80670332663112 258.70963305927506) rotate(306.64770280153573)"><path class="outline" fill="#A5ABB6" stroke="none" d="M 24.018736134675446,6.953439040707552 L 24.277555179777966,5.987513214418485 A 100.20417011313572 100.20417011313572 0 0 0 30.900796328911767,7.5234079685847774 L 30.708074744041248,8.504661447928925 A 101.20417011313572 101.20417011313572 0 0 1 24.018736134675446,6.953439040707552 Z M 66.46563682146099,9.088223363543307 L 66.30503737185786,8.101203699713253 A 100.20417011313572 100.20417011313572 0 0 0 72.97486950625319,6.782251344834249 L 72.29338389512135,3.8606803014022617 L 79.90544954278312,5.679046759431964 L 73.88351698776229,10.677679402743564 L 73.20203137663046,7.756108359311577 A 101.20417011313572 101.20417011313572 0 0 1 66.46563682146099,9.088223363543307"/><text text-anchor="middle" pointer-events="none" font-size="8px" fill="#000000" x="48.56903378530345" y="12.88847936535744" font-family="sans-serif">WROTE</text></g><g class="relationship" transform="translate(152.80670332663112 258.70963305927506) rotate(306.64770280153573)"><path class="outline" fill="#A5ABB6" stroke="none" d="M 24.018736134675446,-6.953439040707552 L 24.277555179777966,-5.987513214418485 A 100.20417011313572 100.20417011313572 0 0 1 25.50565470269493,-6.308258783141071 L 25.25909162978928,-7.277385529794643 A 101.20417011313572 101.20417011313572 0 0 0 24.018736134675446,-6.953439040707552 Z M 71.95176564987514,-8.039408014362351 L 71.73695767484978,-7.0627517115282785 A 100.20417011313572 100.20417011313572 0 0 1 72.97486950625319,-6.782251344834249 L 72.29338389512135,-3.8606803014022617 L 79.90544954278312,-5.679046759431964 L 73.88351698776229,-10.677679402743564 L 73.20203137663046,-7.756108359311577 A 101.20417011313572 101.20417011313572 0 0 0 71.95176564987514,-8.039408014362351"/><text text-anchor="middle" pointer-events="none" font-size="8px" fill="#000000" x="48.569033785303404" y="-6.8884793653574405" font-family="sans-serif">DIRECTED</text></g><g class="relationship" transform="translate(257.9555453104139 80.00353679643334) rotate(474.2995936999661)"><path class="outline" fill="#A5ABB6" stroke="none" d="M 24.018736134675446,6.953439040707552 L 24.277555179777966,5.987513214418485 A 100.30710639562128 100.30710639562128 0 0 0 25.53076091606519,6.31465165802382 L 25.284435559409275,7.283838852877494 A 101.30710639562128 101.30710639562128 0 0 1 24.018736134675446,6.953439040707552 Z M 71.97774389579563,8.0455190412452 L 71.76316073381278,7.06881331965171 A 100.30710639562128 100.30710639562128 0 0 0 73.02636969580425,6.782723653476952 L 72.34483996653945,3.8611629013911357 L 79.95693307221529,5.679414410540041 L 73.93507600149066,10.678137989591374 L 73.25354627222586,7.7565772375055575 A 101.30710639562128 101.30710639562128 0 0 1 71.97774389579563,8.0455190412452"/><text text-anchor="middle" pointer-events="none" font-size="8px" fill="#000000" x="48.59475699877558" y="12.89198554597786" transform="rotate(180 48.59475699877558 9.89198554597786)" font-family="sans-serif">DIRECTED</text></g><g class="relationship" transform="translate(257.9555453104139 80.00353679643334) rotate(474.2995936999661)"><path class="outline" fill="#A5ABB6" stroke="none" d="M 24.018736134675446,-6.953439040707552 L 24.277555179777966,-5.987513214418485 A 100.30710639562128 100.30710639562128 0 0 1 30.926195112786104,-7.528636030045902 L 30.733658908171325,-8.509925900528899 A 101.30710639562128 101.30710639562128 0 0 0 24.018736134675446,-6.953439040707552 Z M 66.49142957567494,-9.093221162055912 L 66.33100168981551,-8.106173598136792 A 100.30710639562128 100.30710639562128 0 0 1 73.02636969580425,-6.782723653476952 L 72.34483996653945,-3.8611629013911357 L 79.95693307221529,-5.679414410540041 L 73.93507600149066,-10.678137989591374 L 73.25354627222586,-7.7565772375055575 A 101.30710639562128 101.30710639562128 0 0 0 66.49142957567494,-9.093221162055912"/><text text-anchor="middle" pointer-events="none" font-size="8px" fill="#000000" x="48.59475699877556" y="-6.89198554597786" transform="rotate(180 48.59475699877556 -9.89198554597786)" font-family="sans-serif">WROTE</text></g><g class="relationship" transform="translate(142.25452638548725 -54.06246732322327) rotate(534.4036497411034)"><path class="outline" fill="#A5ABB6" stroke="none" d="M 21.40063509461097,12.933012701892217 L 21.90063509461097,12.06698729810778 A 56.709576235776964 56.709576235776964 0 0 0 31.111360815193557,16.335582972120946 L 30.773780045453503,17.276879537450768 A 57.709576235776964 57.709576235776964 0 0 1 21.40063509461097,12.933012701892217 Z M 66.25699662712897,18.401828456732574 L 65.9797190164036,17.441038611558078 A 56.709576235776964 56.709576235776964 0 0 0 75.44233618487421,13.764456822590137 L 74.10992032264008,11.076582575147206 L 81.9361120726134,11.10346551861768 L 77.21889066785303,17.348289152514045 L 75.8864748056189,14.660414905071114 A 57.709576235776964 57.709576235776964 0 0 1 66.25699662712897,18.401828456732574"/><text text-anchor="middle" pointer-events="none" font-size="8px" fill="#000000" x="48.44257934693512" y="23.13590017277526" transform="rotate(180 48.44257934693512 20.13590017277526)" font-family="sans-serif">WROTE</text></g><g class="relationship" transform="translate(142.25452638548725 -54.06246732322327) rotate(534.4036497411034)"><path class="outline" fill="#A5ABB6" stroke="none" d="M 25 0.5 L 27.22221956731893 0.5 L 27.22221956731893 -0.5 L 25 -0.5 Z M 70.11284456731893 0.5 L 72.33506413463786 0.5 L 72.33506413463786 3.5 L 79.33506413463786 0 L 72.33506413463786 -3.5 L 72.33506413463786 -0.5 L 70.11284456731893 -0.5 Z"/><text text-anchor="middle" pointer-events="none" font-size="8px" fill="#000000" x="48.66753206731893" y="3" transform="rotate(180 48.66753206731893 0)" font-family="sans-serif">PRODU…</text></g><g class="relationship" transform="translate(142.25452638548725 -54.06246732322327) rotate(534.4036497411034)"><path class="outline" fill="#A5ABB6" stroke="none" d="M 21.40063509461097,-12.933012701892217 L 21.90063509461097,-12.06698729810778 A 56.709576235776964 56.709576235776964 0 0 1 26.023254581679552,-14.226664111064395 L 25.595951642047776,-15.13077262102437 A 57.709576235776964 57.709576235776964 0 0 0 21.40063509461097,-12.933012701892217 Z M 71.56036914323874,-16.588014291163326 L 71.19119391582593,-15.658654483841794 A 56.709576235776964 56.709576235776964 0 0 1 75.44233618487421,-13.764456822590137 L 74.10992032264008,-11.076582575147206 L 81.9361120726134,-11.10346551861768 L 77.21889066785303,-17.348289152514045 L 75.8864748056189,-14.660414905071114 A 57.709576235776964 57.709576235776964 0 0 0 71.56036914323874,-16.588014291163326"/><text text-anchor="middle" pointer-events="none" font-size="8px" fill="#000000" x="48.44257934693511" y="-17.13590017277526" transform="rotate(180 48.44257934693511 -20.13590017277526)" font-family="sans-serif">DIRECTED</text></g><g class="relationship" transform="translate(-63.27001122642734 99.91633434259484) rotate(432.07607987576813)"><path class="outline" fill="#A5ABB6" stroke="none" d="M 21.40063509461097,12.933012701892217 L 21.90063509461097,12.06698729810778 A 57.60109958768647 57.60109958768647 0 0 0 26.428823573215972,14.420306596876046 L 26.00743645580013,15.327187458553013 A 58.60109958768647 58.60109958768647 0 0 1 21.40063509461097,12.933012701892217 Z M 72.00573101200965,16.774227363490326 L 71.64217902623714,15.842653451424901 A 57.60109958768647 57.60109958768647 0 0 0 76.30933147286659,13.778606296041389 L 74.97559929929433,11.091384963665096 L 82.80180327733999,11.114434779768832 L 78.08764103762961,17.36156807254311 L 76.75390886405735,14.674346740166818 A 58.60109958768647 58.60109958768647 0 0 1 72.00573101200965,16.774227363490326"/><text text-anchor="middle" pointer-events="none" font-size="8px" fill="#000000" x="48.874311969380564" y="23.25534307124071" font-family="sans-serif">DIRECTED</text></g><g class="relationship" transform="translate(-63.27001122642734 99.91633434259484) rotate(432.07607987576813)"><path class="outline" fill="#A5ABB6" stroke="none" d="M 25 0.5 L 27.652344690237882 0.5 L 27.652344690237882 -0.5 L 25 -0.5 Z M 70.54296969023788 0.5 L 73.19531438047576 0.5 L 73.19531438047576 3.5 L 80.19531438047576 0 L 73.19531438047576 -3.5 L 73.19531438047576 -0.5 L 70.54296969023788 -0.5 Z"/><text text-anchor="middle" pointer-events="none" font-size="8px" fill="#000000" x="49.09765719023788" y="3" font-family="sans-serif">PRODU…</text></g><g class="relationship" transform="translate(-63.27001122642734 99.91633434259484) rotate(432.07607987576813)"><path class="outline" fill="#A5ABB6" stroke="none" d="M 21.40063509461097,-12.933012701892217 L 21.90063509461097,-12.06698729810778 A 57.60109958768647 57.60109958768647 0 0 1 31.52980159737034,-16.50004768849802 L 31.196971435649225,-17.443034477084524 A 58.60109958768647 58.60109958768647 0 0 0 21.40063509461097,-12.933012701892217 Z M 66.69346605900958,-18.559702925359886 L 66.4205653577757,-17.597660718767024 A 57.60109958768647 57.60109958768647 0 0 1 76.30933147286659,-13.778606296041389 L 74.97559929929433,-11.091384963665096 L 82.80180327733999,-11.114434779768832 L 78.08764103762961,-17.36156807254311 L 76.75390886405735,-14.674346740166818 A 58.60109958768647 58.60109958768647 0 0 0 66.69346605900958,-18.559702925359886"/><text text-anchor="middle" pointer-events="none" font-size="8px" fill="#000000" x="48.87431196938055" y="-17.25534307124071" font-family="sans-serif">WROTE</text></g></g><g class="layer nodes"><g class="node" transform="translate(152.80670332663112,258.70963305927506)"><circle class="outline" cx="0" cy="0" r="25" fill="#57C7E3" stroke="#23b3d7" stroke-width="2px"/><text text-anchor="middle" pointer-events="none" font-family="sans-serif" dy="1.5625" font-size="25" fill="#FFFFFF"/><text text-anchor="middle" pointer-events="none" font-family="sans-serif" dy="1.5625" font-size="25" fill="#FFFFFF"/><text text-anchor="middle" pointer-events="none" y="0" font-size="10px" fill="#FFFFFF" font-family="sans-serif"> Lilly</text><text text-anchor="middle" pointer-events="none" y="10" font-size="10px" fill="#FFFFFF" font-family="sans-serif"> Wacho…</text></g><g class="node" transform="translate(215.03392507014766,175.06618564567395)"><circle class="outline" cx="0" cy="0" r="25" fill="#F79767" stroke="#f36924" stroke-width="2px"/><text text-anchor="middle" pointer-events="none" font-family="sans-serif" dy="1.5625" font-size="25" fill="#FFFFFF"/><text text-anchor="middle" pointer-events="none" font-family="sans-serif" dy="1.5625" font-size="25" fill="#FFFFFF"/><text text-anchor="middle" pointer-events="none" y="0" font-size="10px" fill="#FFFFFF" font-family="sans-serif"> Speed</text><text text-anchor="middle" pointer-events="none" y="10" font-size="10px" fill="#FFFFFF" font-family="sans-serif"> Racer</text></g><g class="node" transform="translate(257.9555453104139,80.00353679643334)"><circle class="outline" cx="0" cy="0" r="25" fill="#57C7E3" stroke="#23b3d7" stroke-width="2px"/><text text-anchor="middle" pointer-events="none" font-family="sans-serif" dy="1.5625" font-size="25" fill="#FFFFFF"/><text text-anchor="middle" pointer-events="none" font-family="sans-serif" dy="1.5625" font-size="25" fill="#FFFFFF"/><text text-anchor="middle" pointer-events="none" y="0" font-size="10px" fill="#FFFFFF" font-family="sans-serif"> Lana</text><text text-anchor="middle" pointer-events="none" y="10" font-size="10px" fill="#FFFFFF" font-family="sans-serif"> Wacho…</text></g><g class="node" transform="translate(142.25452638548725,-54.06246732322327)"><circle class="outline" cx="0" cy="0" r="25" fill="#57C7E3" stroke="#23b3d7" stroke-width="2px"/><text text-anchor="middle" pointer-events="none" font-family="sans-serif" dy="1.5625" font-size="25" fill="#FFFFFF"/><text text-anchor="middle" pointer-events="none" font-family="sans-serif" dy="1.5625" font-size="25" fill="#FFFFFF"/><text text-anchor="middle" pointer-events="none" y="0" font-size="10px" fill="#FFFFFF" font-family="sans-serif"> Cameron</text><text text-anchor="middle" pointer-events="none" y="10" font-size="10px" fill="#FFFFFF" font-family="sans-serif"> Crowe</text></g><g class="node" transform="translate(38.41676344054974,-43.887763663167284)"><circle class="outline" cx="0" cy="0" r="25" fill="#F79767" stroke="#f36924" stroke-width="2px"/><text text-anchor="middle" pointer-events="none" font-family="sans-serif" dy="1.5625" font-size="25" fill="#FFFFFF"/><text text-anchor="middle" pointer-events="none" font-family="sans-serif" dy="1.5625" font-size="25" fill="#FFFFFF"/><text text-anchor="middle" pointer-events="none" y="0" font-size="10px" fill="#FFFFFF" font-family="sans-serif"> Jerry</text><text text-anchor="middle" pointer-events="none" y="10" font-size="10px" fill="#FFFFFF" font-family="sans-serif"> Maguire</text></g><g class="node" transform="translate(-63.27001122642734,99.91633434259484)"><circle class="outline" cx="0" cy="0" r="25" fill="#57C7E3" stroke="#23b3d7" stroke-width="2px"/><text text-anchor="middle" pointer-events="none" font-family="sans-serif" dy="1.5625" font-size="25" fill="#FFFFFF"/><text text-anchor="middle" pointer-events="none" font-family="sans-serif" dy="1.5625" font-size="25" fill="#FFFFFF"/><text text-anchor="middle" pointer-events="none" y="0" font-size="10px" fill="#FFFFFF" font-family="sans-serif"> Nancy</text><text text-anchor="middle" pointer-events="none" y="10" font-size="10px" fill="#FFFFFF" font-family="sans-serif"> Meyers</text></g><g class="node" transform="translate(-30.89574640170735,200.00609977675913)"><circle class="outline" cx="0" cy="0" r="25" fill="#F79767" stroke="#f36924" stroke-width="2px"/><text text-anchor="middle" pointer-events="none" font-family="sans-serif" dy="1.5625" font-size="25" fill="#FFFFFF"/><text text-anchor="middle" pointer-events="none" y="5" font-size="10px" fill="#FFFFFF" font-family="sans-serif"> Somethi…</text></g></g></svg>