<svg xmlns="http://www.w3.org/2000/svg" width="271.7810974121094" height="188.53977966308594" viewBox="42.198524475097656 -11.497329711914062 271.7810974121094 188.53977966308594"><title>Neo4j Graph Visualization</title><desc>Created using Neo4j (http://www.neo4j.com/)</desc><g class="layer relationships"><g class="relationship" transform="translate(284.97962046418036 55.05747296591932) rotate(196.08224040858414)"><path class="outline" fill="#A5ABB6" stroke="none" d="M 25 0.5 L 41.50308170593286 0.5 L 41.50308170593286 -0.5 L 25 -0.5 Z M 87.06558170593286 0.5 L 103.56866341186571 0.5 L 103.56866341186571 3.5 L 110.56866341186571 0 L 103.56866341186571 -3.5 L 103.56866341186571 -0.5 L 87.06558170593286 -0.5 Z"/><text text-anchor="middle" pointer-events="none" font-size="8px" fill="#000000" x="64.28433170593286" y="3" transform="rotate(180 64.28433170593286 0)" font-family="sans-serif">ACTED_IN</text></g><g class="relationship" transform="translate(284.97962046418036 55.05747296591932) rotate(526.3843731432144)"><path class="outline" fill="#A5ABB6" stroke="none" d="M 25 0.5 L 31.035809800037022 0.5 L 31.035809800037022 -0.5 L 25 -0.5 Z M 76.59830980003701 0.5 L 82.63411960007404 0.5 L 82.63411960007404 3.5 L 89.63411960007404 0 L 82.63411960007404 -3.5 L 82.63411960007404 -0.5 L 76.59830980003701 -0.5 Z"/><text text-anchor="middle" pointer-events="none" font-size="8px" fill="#000000" x="53.81705980003702" y="3" transform="rotate(180 53.81705980003702 0)" font-family="sans-serif">ACTED_IN</text></g><g class="relationship" transform="translate(284.97962046418036 55.05747296591932) rotate(496.75661251428687)"><path class="outline" fill="#A5ABB6" stroke="none" d="M 25 0.5 L 41.58121175893733 0.5 L 41.58121175893733 -0.5 L 25 -0.5 Z M 87.14371175893733 0.5 L 103.72492351787466 0.5 L 103.72492351787466 3.5 L 110.72492351787466 0 L 103.72492351787466 -3.5 L 103.72492351787466 -0.5 L 87.14371175893733 -0.5 Z"/><text text-anchor="middle" pointer-events="none" font-size="8px" fill="#000000" x="64.36246175893733" y="3" transform="rotate(180 64.36246175893733 0)" font-family="sans-serif">ACTED_IN</text></g><g class="relationship" transform="translate(71.19852493296166 106.66863434221133) rotate(379.8012690527652)"><path class="outline" fill="#A5ABB6" stroke="none" d="M 25 0.5 L 34.78556602992837 0.5 L 34.78556602992837 -0.5 L 25 -0.5 Z M 80.34806602992836 0.5 L 90.13363205985674 0.5 L 90.13363205985674 3.5 L 97.13363205985674 0 L 90.13363205985674 -3.5 L 90.13363205985674 -0.5 L 80.34806602992836 -0.5 Z"/><text text-anchor="middle" pointer-events="none" font-size="8px" fill="#000000" x="57.56681602992837" y="3" font-family="sans-serif">ACTED_IN</text></g><g class="relationship" transform="translate(71.19852493296166 106.66863434221133) rotate(313.12666518915586)"><path class="outline" fill="#A5ABB6" stroke="none" d="M 25 0.5 L 34.80436432220303 0.5 L 34.80436432220303 -0.5 L 25 -0.5 Z M 80.36686432220303 0.5 L 90.17122864440606 0.5 L 90.17122864440606 3.5 L 97.17122864440606 0 L 90.17122864440606 -3.5 L 90.17122864440606 -0.5 L 80.36686432220303 -0.5 Z"/><text text-anchor="middle" pointer-events="none" font-size="8px" fill="#000000" x="57.58561432220303" y="3" font-family="sans-serif">ACTED_IN</text></g><g class="relationship" transform="translate(71.19852493296166 106.66863434221133) rotate(346.4740994471666)"><path class="outline" fill="#A5ABB6" stroke="none" d="M 25 0.5 L 26.36315888905098 0.5 L 26.36315888905098 -0.5 L 25 -0.5 Z M 71.92565888905098 0.5 L 73.28881777810196 0.5 L 73.28881777810196 3.5 L 80.28881777810196 0 L 73.28881777810196 -3.5 L 73.28881777810196 -0.5 L 71.92565888905098 -0.5 Z"/><text text-anchor="middle" pointer-events="none" font-size="8px" fill="#000000" x="49.14440888905098" y="3" font-family="sans-serif">ACTED_IN</text></g></g><g class="layer nodes"><g class="node" transform="translate(186.11079421349706,148.04247207730893)"><circle class="outline" cx="0" cy="0" r="25" fill="#F79767" stroke="#f36924" stroke-width="2px"/><text text-anchor="middle" pointer-events="none" font-family="sans-serif" dy="1.5625" font-size="25" fill="#FFFFFF"/><text text-anchor="middle" pointer-events="none" font-family="sans-serif" dy="1.5625" font-size="25" fill="#FFFFFF"/><text text-anchor="middle" pointer-events="none" y="0" font-size="10px" fill="#FFFFFF" font-family="sans-serif"> The</text><text text-anchor="middle" pointer-events="none" y="10" font-size="10px" fill="#FFFFFF" font-family="sans-serif"> Matrix</text></g><g class="node" transform="translate(284.97962046418036,55.05747296591932)"><circle class="outline" cx="0" cy="0" r="25" fill="#57C7E3" stroke="#23b3d7" stroke-width="2px"/><text text-anchor="middle" pointer-events="none" font-family="sans-serif" dy="1.5625" font-size="25" fill="#FFFFFF"/><text text-anchor="middle" pointer-events="none" font-family="sans-serif" dy="1.5625" font-size="25" fill="#FFFFFF"/><text text-anchor="middle" pointer-events="none" y="0" font-size="10px" fill="#FFFFFF" font-family="sans-serif"> Hugo</text><text text-anchor="middle" pointer-events="none" y="10" font-size="10px" fill="#FFFFFF" font-family="sans-serif"> Weaving</text></g><g class="node" transform="translate(71.19852493296166,106.66863434221133)"><circle class="outline" cx="0" cy="0" r="25" fill="#57C7E3" stroke="#23b3d7" stroke-width="2px"/><text text-anchor="middle" pointer-events="none" font-family="sans-serif" dy="1.5625" font-size="25" fill="#FFFFFF"/><text text-anchor="middle" pointer-events="none" font-family="sans-serif" dy="1.5625" font-size="25" fill="#FFFFFF"/><text text-anchor="middle" pointer-events="none" y="0" font-size="10px" fill="#FFFFFF" font-family="sans-serif"> Keanu</text><text text-anchor="middle" pointer-events="none" y="10" font-size="10px" fill="#FFFFFF" font-family="sans-serif"> Reeves</text></g><g class="node" transform="translate(154.71642783159726,17.502671083253496)"><circle class="outline" cx="0" cy="0" r="25" fill="#F79767" stroke="#f36924" stroke-width="2px"/><text text-anchor="middle" pointer-events="none" font-family="sans-serif" dy="1.5625" font-size="25" fill="#FFFFFF"/><text text-anchor="middle" pointer-events="none" font-family="sans-serif" dy="1.5625" font-size="25" fill="#FFFFFF"/><text text-anchor="middle" pointer-events="none" font-family="sans-serif" dy="1.5625" font-size="25" fill="#FFFFFF"/><text text-anchor="middle" pointer-events="none" y="-5" font-size="10px" fill="#FFFFFF" font-family="sans-serif"> The</text><text text-anchor="middle" pointer-events="none" y="5" font-size="10px" fill="#FFFFFF" font-family="sans-serif"> Matrix</text><text text-anchor="middle" pointer-events="none" y="15" font-size="10px" fill="#FFFFFF" font-family="sans-serif"> Revol…</text></g><g class="node" transform="translate(173.56708281504066,82.0431697526082)"><circle class="outline" cx="0" cy="0" r="25" fill="#F79767" stroke="#f36924" stroke-width="2px"/><text text-anchor="middle" pointer-events="none" font-family="sans-serif" dy="1.5625" font-size="25" fill="#FFFFFF"/><text text-anchor="middle" pointer-events="none" font-family="sans-serif" dy="1.5625" font-size="25" fill="#FFFFFF"/><text text-anchor="middle" pointer-events="none" font-family="sans-serif" dy="1.5625" font-size="25" fill="#FFFFFF"/><text text-anchor="middle" pointer-events="none" y="-5" font-size="10px" fill="#FFFFFF" font-family="sans-serif"> The</text><text text-anchor="middle" pointer-events="none" y="5" font-size="10px" fill="#FFFFFF" font-family="sans-serif"> Matrix</text><text text-anchor="middle" pointer-events="none" y="15" font-size="10px" fill="#FFFFFF" font-family="sans-serif"> Reloa…</text></g></g></svg>